<?xml version="1.0" encoding="UTF-8" standalone="no"?><!DOCTYPE svg PUBLIC "-//W3C//DTD SVG 1.1//EN" "http://www.w3.org/Graphics/SVG/1.1/DTD/svg11.dtd"><svg width="100%" height="100%" viewBox="0 0 288 64" version="1.1" xmlns="http://www.w3.org/2000/svg" xmlns:xlink="http://www.w3.org/1999/xlink" xml:space="preserve" style="fill-rule:evenodd;clip-rule:evenodd;stroke-linecap:round;stroke-linejoin:round;stroke-miterlimit:1.5;"><path d="M285.598,16.818c0,-8.247 -7.946,-14.943 -17.733,-14.943l-248.257,0c-9.787,0 -17.733,6.696 -17.733,14.943l0,29.887c0,8.247 7.946,14.943 17.733,14.943l248.257,0c9.787,0 17.733,-6.696 17.733,-14.943l0,-29.887Z" style="fill:#3cccec;stroke:#2d869d;stroke-width:3.75px;"/><path d="M56.379,47.64l0,-31.287l33.895,0l0,7.61l-21.184,0l0,4.557l19.623,0l0,6.859l-19.623,0l0,12.261l-12.711,0Z" style="fill:#fff;fill-rule:nonzero;"/><rect x="92.504" y="16.353" width="12.655" height="30.959" style="fill:#fff;fill-rule:nonzero;"/><path d="M146.802,31.01l0,16.818l-18.118,-0.047c-3.27,0 -6.225,-0.352 -8.864,-1.057c-2.638,-0.704 -4.877,-1.738 -6.717,-3.1c-1.84,-1.363 -3.252,-3.046 -4.237,-5.051c-0.985,-2.004 -1.477,-4.306 -1.477,-6.905c0,-5.105 1.802,-9.044 5.407,-11.816c3.605,-2.771 8.697,-4.157 15.275,-4.157l11.819,0l0,7.188l-11.54,0c-1.673,0.125 -2.992,0.375 -3.958,0.751c-0.966,0.376 -1.84,1.002 -2.62,1.879c-1.115,1.316 -1.673,3.336 -1.673,6.061c0,2.63 0.586,4.744 1.756,6.342c1.171,1.597 3.187,2.49 6.049,2.677l8.306,0l0,-3.288l-5.853,0l0,-6.295l16.445,0Z" style="fill:#fff;fill-rule:nonzero;"/><path d="M149.032,47.311l0,-30.958l12.599,0l0,10.852l13.826,0l0,-10.852l18.675,0l0,7.516l-5.965,0l0,23.442l-12.71,0l0,-12.496l-13.826,0l0,12.496l-12.599,0Z" style="fill:#fff;fill-rule:nonzero;"/><path d="M192.516,23.681l0,-7.469l38.577,0l0,7.469l-13.1,0l0,23.63l-12.655,0l0,-23.63l-12.822,0Z" style="fill:#fff;fill-rule:nonzero;"/></svg>