<?xml version="1.0" encoding="UTF-8" standalone="no"?><!DOCTYPE svg PUBLIC "-//W3C//DTD SVG 1.1//EN" "http://www.w3.org/Graphics/SVG/1.1/DTD/svg11.dtd"><svg width="100%" height="100%" viewBox="0 0 356 70" version="1.1" xmlns="http://www.w3.org/2000/svg" xmlns:xlink="http://www.w3.org/1999/xlink" xml:space="preserve" style="fill-rule:evenodd;clip-rule:evenodd;stroke-linejoin:round;stroke-miterlimit:1.41421;"><rect x="288.995" y="19.411" width="64.37" height="5.85" style="fill:#fff;"/><path d="M353.496,18.673l0.126,0.034l0.119,0.055l0.107,0.075l0.092,0.092l0.075,0.107l0.056,0.119l0.033,0.126l0.012,0.13l0,5.851l-0.012,0.13l-0.033,0.126l-0.056,0.119l-0.075,0.107l-0.092,0.092l-0.107,0.075l-0.119,0.055l-0.126,0.034l-0.13,0.012l-64.371,0l-0.13,-0.012l-0.126,-0.034l-0.119,-0.055l-0.107,-0.075l-0.092,-0.092l-0.075,-0.107l-0.055,-0.119l-0.034,-0.126l-0.012,-0.13l0,-5.851l0.012,-0.13l0.034,-0.126l0.055,-0.119l0.075,-0.107l0.092,-0.092l0.107,-0.075l0.119,-0.055l0.126,-0.034l0.13,-0.012l64.371,0l0.13,0.012Zm-64.501,0.738l0,5.85l64.371,0l0,-5.85l-64.371,0Z"/><g><g><path d="M132.176,25.041l-1.507,-4.337l-8.783,0l-1.25,4.337l-8.857,0l6.615,-24.218l15.913,0l6.799,24.218l-8.93,0Zm-8.857,-9.592l6.321,0l-3.381,-9.555l-2.94,9.555Z" style="fill:#fff;fill-rule:nonzero;"/><path d="M134.395,0.078l0.087,0.016l0.085,0.025l0.081,0.036l0.076,0.044l0.071,0.054l0.063,0.061l0.056,0.068l0.048,0.075l0.038,0.079l0.029,0.084l6.799,24.218l0.019,0.09l0.009,0.092l-0.004,0.092l-0.014,0.091l-0.025,0.089l-0.036,0.085l-0.047,0.079l-0.055,0.074l-0.065,0.066l-0.072,0.058l-0.078,0.048l-0.084,0.039l-0.088,0.027l-0.09,0.017l-0.092,0.006l-8.93,0l-0.093,-0.006l-0.091,-0.017l-0.088,-0.028l-0.084,-0.039l-0.079,-0.049l-0.072,-0.058l-0.064,-0.067l-0.056,-0.074l-0.046,-0.08l-0.036,-0.086l-1.332,-3.832l-7.685,0l-1.093,3.794l-0.029,0.083l-0.039,0.078l-0.048,0.074l-0.056,0.068l-0.064,0.061l-0.07,0.053l-0.076,0.044l-0.08,0.035l-0.085,0.025l-0.086,0.016l-0.088,0.005l-8.857,0l-0.091,-0.006l-0.091,-0.016l-0.087,-0.028l-0.084,-0.038l-0.078,-0.048l-0.072,-0.058l-0.064,-0.065l-0.055,-0.073l-0.047,-0.079l-0.036,-0.085l-0.026,-0.088l-0.015,-0.09l-0.003,-0.092l0.007,-0.092l0.019,-0.09l6.615,-24.218l0.028,-0.084l0.039,-0.08l0.047,-0.075l0.056,-0.069l0.064,-0.062l0.07,-0.054l0.077,-0.045l0.081,-0.036l0.085,-0.026l0.088,-0.016l0.088,-0.005l15.913,0l0.088,0.005Zm-16.001,0.745l-6.615,24.218l8.857,0l1.25,-4.337l8.783,0l1.507,4.337l8.93,0l-6.799,-24.218l-15.913,0Zm11.246,14.626l-6.321,0l2.94,-9.555l3.381,9.555Zm-5.306,-0.75l4.245,0l-2.27,-6.416l-1.975,6.416Z"/></g><g><path d="M151.58,25.041l-9.004,0l0,-24.255l13.891,0c1.372,0 2.726,0.141 4.061,0.423c1.335,0.281 2.53,0.759 3.583,1.433c1.054,0.674 1.905,1.562 2.554,2.664c0.65,1.103 0.962,2.462 0.938,4.079c-0.025,1.323 -0.154,2.42 -0.386,3.29c-0.233,0.869 -0.527,1.592 -0.882,2.168c-0.356,0.576 -0.748,1.035 -1.176,1.378c-0.429,0.343 -0.827,0.637 -1.195,0.882l-1.029,0.331c0.049,0.171 0.074,0.373 0.074,0.606c0,0.233 0.208,0.447 0.625,0.643c0.416,0.196 1.139,0.362 2.168,0.496c1.029,0.135 2.572,0.202 4.63,0.202l0,5.77l-7.607,0c-1.347,-0.294 -2.542,-0.716 -3.583,-1.268c-1.041,-0.551 -2.003,-1.188 -2.885,-1.911c-0.882,-0.722 -1.709,-1.5 -2.481,-2.333c-0.771,-0.833 -1.537,-1.654 -2.296,-2.463l0,7.865Zm0.073,-17.861l0,4.815l3.344,0c2.23,0 3.773,-0.19 4.631,-0.57c0.857,-0.38 1.286,-1.06 1.286,-2.04c0,-0.318 -0.086,-0.612 -0.257,-0.882c-0.172,-0.269 -0.484,-0.502 -0.937,-0.698c-0.454,-0.196 -1.066,-0.349 -1.838,-0.459c-0.772,-0.11 -1.758,-0.166 -2.958,-0.166l-3.271,0Z" style="fill:#fff;fill-rule:nonzero;"/><path d="M156.601,0.036l0.133,0.002l0.133,0.002l0.133,0.003l0.133,0.004l0.133,0.004l0.133,0.006l0.133,0.006l0.132,0.008l0.133,0.008l0.132,0.009l0.132,0.01l0.132,0.01l0.132,0.012l0.132,0.012l0.132,0.014l0.132,0.014l0.132,0.015l0.131,0.016l0.131,0.016l0.132,0.018l0.131,0.018l0.131,0.02l0.131,0.02l0.131,0.021l0.13,0.022l0.131,0.022l0.13,0.024l0.131,0.024l0.13,0.026l0.13,0.026l0.131,0.027l0.131,0.028l0.132,0.03l0.13,0.031l0.13,0.033l0.129,0.033l0.129,0.035l0.127,0.036l0.127,0.037l0.126,0.039l0.125,0.04l0.124,0.041l0.124,0.042l0.123,0.044l0.122,0.044l0.121,0.047l0.12,0.047l0.12,0.048l0.118,0.05l0.118,0.051l0.117,0.053l0.116,0.053l0.116,0.055l0.114,0.056l0.114,0.058l0.113,0.058l0.112,0.06l0.111,0.061l0.11,0.063l0.109,0.064l0.109,0.064l0.108,0.067l0.107,0.067l0.107,0.07l0.106,0.071l0.105,0.072l0.103,0.074l0.103,0.076l0.101,0.077l0.1,0.078l0.098,0.079l0.097,0.081l0.096,0.083l0.095,0.084l0.094,0.085l0.092,0.086l0.091,0.088l0.089,0.09l0.088,0.09l0.087,0.092l0.086,0.094l0.084,0.094l0.083,0.096l0.082,0.098l0.08,0.099l0.079,0.1l0.078,0.101l0.076,0.103l0.075,0.104l0.073,0.105l0.072,0.107l0.071,0.107l0.07,0.11l0.068,0.11l0.066,0.111l0.035,0.059l0.033,0.059l0.033,0.059l0.033,0.06l0.031,0.06l0.032,0.061l0.03,0.061l0.03,0.061l0.03,0.062l0.029,0.062l0.028,0.062l0.028,0.063l0.027,0.063l0.026,0.063l0.026,0.064l0.026,0.064l0.025,0.065l0.024,0.065l0.024,0.065l0.023,0.066l0.023,0.066l0.022,0.067l0.021,0.066l0.021,0.068l0.02,0.067l0.02,0.068l0.019,0.068l0.019,0.069l0.018,0.068l0.017,0.07l0.017,0.069l0.017,0.07l0.015,0.07l0.016,0.072l0.029,0.141l0.026,0.143l0.025,0.145l0.022,0.146l0.02,0.148l0.018,0.149l0.015,0.15l0.014,0.151l0.011,0.153l0.009,0.154l0.007,0.155l0.005,0.157l0.003,0.158l0.001,0.159l-0.001,0.161l-0.003,0.13l-0.004,0.126l-0.003,0.124l-0.005,0.124l-0.005,0.122l-0.006,0.121l-0.007,0.12l-0.007,0.119l-0.008,0.117l-0.008,0.116l-0.009,0.115l-0.01,0.114l-0.01,0.112l-0.011,0.112l-0.012,0.11l-0.012,0.108l-0.013,0.108l-0.014,0.107l-0.014,0.105l-0.015,0.104l-0.016,0.103l-0.017,0.102l-0.017,0.1l-0.018,0.099l-0.018,0.099l-0.019,0.097l-0.02,0.095l-0.021,0.095l-0.021,0.094l-0.022,0.092l-0.023,0.091l-0.024,0.09l-0.023,0.087l-0.024,0.085l-0.024,0.084l-0.025,0.084l-0.025,0.083l-0.025,0.082l-0.026,0.081l-0.026,0.081l-0.027,0.08l-0.027,0.079l-0.028,0.078l-0.028,0.077l-0.028,0.077l-0.029,0.076l-0.03,0.075l-0.03,0.075l-0.03,0.073l-0.031,0.073l-0.031,0.072l-0.032,0.071l-0.032,0.071l-0.033,0.07l-0.033,0.069l-0.033,0.068l-0.035,0.067l-0.034,0.067l-0.035,0.066l-0.036,0.065l-0.036,0.064l-0.037,0.064l-0.037,0.063l-0.038,0.063l-0.074,0.116l-0.075,0.115l-0.076,0.111l-0.039,0.057l-0.039,0.055l-0.04,0.054l-0.04,0.053l-0.04,0.053l-0.04,0.052l-0.041,0.052l-0.041,0.05l-0.041,0.051l-0.042,0.049l-0.042,0.049l-0.043,0.048l-0.043,0.048l-0.043,0.047l-0.043,0.046l-0.044,0.045l-0.045,0.045l-0.044,0.044l-0.045,0.044l-0.046,0.043l-0.045,0.042l-0.047,0.041l-0.046,0.041l-0.047,0.04l-0.047,0.039l-0.047,0.038l-0.165,0.131l-0.162,0.126l-0.16,0.122l-0.157,0.117l-0.154,0.113l-0.153,0.108l-0.149,0.104l-0.143,0.097l-0.061,0.037l-0.064,0.031l-0.066,0.025l-0.372,0.12l0.005,0.003l0.022,0.012l0.023,0.013l0.026,0.013l0.027,0.013l0.027,0.013l0.027,0.012l0.028,0.013l0.031,0.013l0.034,0.013l0.036,0.013l0.038,0.014l0.041,0.014l0.043,0.014l0.046,0.014l0.047,0.014l0.05,0.014l0.052,0.014l0.055,0.015l0.056,0.014l0.059,0.014l0.059,0.014l0.129,0.028l0.136,0.028l0.144,0.027l0.151,0.027l0.16,0.027l0.167,0.026l0.175,0.025l0.183,0.025l0.092,0.011l0.096,0.012l0.099,0.011l0.102,0.011l0.105,0.01l0.109,0.01l0.112,0.01l0.115,0.009l0.118,0.009l0.122,0.009l0.124,0.008l0.127,0.008l0.266,0.015l0.278,0.013l0.29,0.011l0.303,0.01l0.315,0.009l0.327,0.007l0.34,0.005l0.352,0.004l0.365,0.003l0.378,0.001l0.09,0.005l0.089,0.017l0.086,0.027l0.083,0.037l0.077,0.047l0.071,0.056l0.064,0.064l0.056,0.071l0.047,0.077l0.037,0.083l0.027,0.086l0.016,0.089l0.005,0.09l0,5.77l-0.005,0.091l-0.016,0.089l-0.027,0.086l-0.038,0.083l-0.046,0.077l-0.056,0.072l-0.064,0.064l-0.072,0.055l-0.077,0.047l-0.083,0.038l-0.086,0.026l-0.089,0.017l-0.091,0.005l-7.607,0l-0.082,-0.004l-0.08,-0.014l-0.129,-0.028l-0.13,-0.03l-0.13,-0.031l-0.128,-0.031l-0.128,-0.033l-0.127,-0.033l-0.126,-0.034l-0.125,-0.035l-0.125,-0.035l-0.123,-0.037l-0.123,-0.037l-0.122,-0.038l-0.121,-0.039l-0.12,-0.039l-0.119,-0.041l-0.118,-0.041l-0.118,-0.042l-0.117,-0.043l-0.116,-0.044l-0.115,-0.045l-0.114,-0.045l-0.113,-0.047l-0.112,-0.047l-0.112,-0.048l-0.111,-0.049l-0.109,-0.049l-0.109,-0.051l-0.108,-0.051l-0.108,-0.052l-0.106,-0.053l-0.105,-0.054l-0.104,-0.054l-0.102,-0.055l-0.101,-0.054l-0.101,-0.056l-0.1,-0.055l-0.099,-0.056l-0.099,-0.057l-0.099,-0.057l-0.098,-0.058l-0.097,-0.058l-0.097,-0.059l-0.097,-0.06l-0.096,-0.06l-0.096,-0.06l-0.095,-0.061l-0.095,-0.062l-0.094,-0.062l-0.094,-0.062l-0.094,-0.063l-0.092,-0.064l-0.093,-0.064l-0.092,-0.065l-0.091,-0.065l-0.091,-0.066l-0.091,-0.066l-0.09,-0.067l-0.089,-0.067l-0.089,-0.068l-0.089,-0.069l-0.088,-0.068l-0.087,-0.07l-0.088,-0.07l-0.087,-0.071l-0.169,-0.14l-0.168,-0.141l-0.167,-0.143l-0.166,-0.144l-0.164,-0.146l-0.163,-0.147l-0.162,-0.148l-0.16,-0.15l-0.159,-0.151l-0.158,-0.152l-0.157,-0.154l-0.155,-0.155l-0.153,-0.156l-0.153,-0.157l-0.151,-0.159l-0.148,-0.159l-0.578,-0.623l-0.42,-0.451l0,5.965l-0.006,0.09l-0.016,0.089l-0.027,0.087l-0.037,0.083l-0.047,0.077l-0.056,0.071l-0.064,0.064l-0.071,0.056l-0.078,0.047l-0.082,0.037l-0.087,0.027l-0.089,0.017l-0.09,0.005l-9.004,0l-0.091,-0.005l-0.089,-0.017l-0.086,-0.027l-0.083,-0.037l-0.077,-0.047l-0.071,-0.056l-0.065,-0.064l-0.055,-0.071l-0.047,-0.077l-0.037,-0.083l-0.027,-0.087l-0.017,-0.089l-0.005,-0.09l0,-24.255l0.005,-0.09l0.017,-0.089l0.027,-0.087l0.037,-0.083l0.047,-0.077l0.055,-0.071l0.065,-0.064l0.071,-0.056l0.077,-0.047l0.083,-0.037l0.086,-0.027l0.089,-0.017l0.091,-0.005l13.893,0l0.132,0Zm-14.025,0.75l0,24.255l9.004,0l0,-7.865l0.57,0.609l0.573,0.613l0.576,0.618l0.577,0.623l0.146,0.155l0.146,0.155l0.148,0.152l0.15,0.152l0.15,0.151l0.152,0.149l0.153,0.147l0.154,0.147l0.156,0.145l0.157,0.144l0.158,0.143l0.16,0.141l0.161,0.14l0.162,0.139l0.163,0.137l0.165,0.136l0.083,0.068l0.083,0.067l0.084,0.066l0.085,0.066l0.084,0.066l0.086,0.065l0.085,0.064l0.087,0.064l0.086,0.064l0.087,0.063l0.088,0.062l0.088,0.062l0.088,0.062l0.089,0.061l0.09,0.06l0.09,0.06l0.09,0.06l0.091,0.059l0.091,0.058l0.092,0.058l0.092,0.058l0.093,0.056l0.093,0.057l0.094,0.056l0.094,0.055l0.095,0.055l0.095,0.055l0.095,0.054l0.096,0.053l0.097,0.053l0.097,0.052l0.097,0.052l0.098,0.052l0.099,0.05l0.1,0.05l0.101,0.049l0.101,0.048l0.103,0.048l0.103,0.047l0.105,0.046l0.105,0.045l0.106,0.044l0.107,0.044l0.108,0.043l0.109,0.043l0.11,0.041l0.11,0.041l0.112,0.04l0.112,0.039l0.113,0.039l0.115,0.037l0.115,0.037l0.116,0.036l0.117,0.036l0.118,0.035l0.118,0.034l0.12,0.033l0.12,0.032l0.122,0.032l0.122,0.031l0.123,0.03l0.124,0.03l0.125,0.028l0.126,0.028l7.607,0l0,-5.77l-0.379,0l-0.368,-0.003l-0.356,-0.004l-0.344,-0.005l-0.331,-0.007l-0.32,-0.009l-0.307,-0.01l-0.296,-0.012l-0.283,-0.013l-0.271,-0.015l-0.132,-0.009l-0.128,-0.008l-0.125,-0.009l-0.122,-0.009l-0.119,-0.01l-0.116,-0.01l-0.113,-0.01l-0.11,-0.011l-0.107,-0.012l-0.104,-0.011l-0.101,-0.012l-0.098,-0.013l-0.189,-0.025l-0.183,-0.027l-0.175,-0.027l-0.167,-0.027l-0.161,-0.029l-0.154,-0.029l-0.146,-0.03l-0.139,-0.031l-0.067,-0.015l-0.065,-0.016l-0.063,-0.016l-0.062,-0.016l-0.059,-0.016l-0.058,-0.017l-0.056,-0.017l-0.055,-0.016l-0.052,-0.018l-0.051,-0.017l-0.049,-0.017l-0.047,-0.018l-0.045,-0.017l-0.044,-0.018l-0.041,-0.018l-0.04,-0.019l-0.039,-0.018l-0.037,-0.019l-0.036,-0.018l-0.035,-0.019l-0.033,-0.019l-0.033,-0.019l-0.031,-0.019l-0.03,-0.019l-0.028,-0.019l-0.028,-0.02l-0.026,-0.019l-0.025,-0.02l-0.024,-0.02l-0.022,-0.02l-0.022,-0.019l-0.02,-0.021l-0.019,-0.02l-0.018,-0.02l-0.016,-0.02l-0.015,-0.021l-0.014,-0.02l-0.013,-0.021l-0.012,-0.021l-0.01,-0.021l-0.009,-0.021l-0.008,-0.021l-0.007,-0.021l-0.005,-0.021l-0.005,-0.022l-0.003,-0.021l-0.002,-0.022l0,-0.022l0,-0.043l-0.001,-0.043l-0.002,-0.042l-0.002,-0.041l-0.002,-0.04l-0.003,-0.04l-0.004,-0.039l-0.005,-0.038l-0.004,-0.038l-0.006,-0.036l-0.006,-0.036l-0.006,-0.036l-0.008,-0.035l-0.007,-0.034l-0.009,-0.033l-0.009,-0.032l1.029,-0.331l0.14,-0.094l0.142,-0.099l0.145,-0.103l0.148,-0.108l0.15,-0.113l0.154,-0.117l0.156,-0.122l0.16,-0.126l0.04,-0.032l0.04,-0.034l0.039,-0.034l0.04,-0.034l0.039,-0.035l0.039,-0.036l0.039,-0.037l0.038,-0.037l0.039,-0.038l0.038,-0.039l0.038,-0.039l0.038,-0.04l0.037,-0.041l0.037,-0.041l0.037,-0.042l0.037,-0.043l0.037,-0.043l0.036,-0.044l0.037,-0.045l0.036,-0.046l0.035,-0.046l0.036,-0.046l0.035,-0.048l0.035,-0.048l0.035,-0.049l0.035,-0.05l0.069,-0.101l0.068,-0.104l0.067,-0.106l0.033,-0.055l0.033,-0.055l0.032,-0.056l0.032,-0.057l0.032,-0.058l0.031,-0.058l0.031,-0.06l0.031,-0.061l0.03,-0.061l0.03,-0.062l0.029,-0.063l0.03,-0.064l0.028,-0.065l0.029,-0.065l0.028,-0.067l0.028,-0.067l0.027,-0.068l0.027,-0.069l0.027,-0.07l0.026,-0.071l0.026,-0.072l0.026,-0.072l0.025,-0.073l0.025,-0.075l0.024,-0.075l0.024,-0.076l0.024,-0.076l0.024,-0.078l0.023,-0.079l0.022,-0.079l0.023,-0.08l0.022,-0.081l0.021,-0.083l0.021,-0.083l0.02,-0.085l0.02,-0.086l0.019,-0.088l0.019,-0.089l0.018,-0.09l0.017,-0.091l0.016,-0.093l0.016,-0.094l0.016,-0.096l0.015,-0.096l0.014,-0.099l0.013,-0.099l0.013,-0.101l0.013,-0.102l0.012,-0.103l0.011,-0.105l0.01,-0.106l0.01,-0.108l0.009,-0.108l0.009,-0.111l0.008,-0.111l0.008,-0.113l0.007,-0.114l0.006,-0.115l0.006,-0.117l0.005,-0.118l0.004,-0.119l0.004,-0.121l0.003,-0.122l0.003,-0.124l0.001,-0.15l-0.001,-0.15l-0.002,-0.147l-0.005,-0.147l-0.007,-0.145l-0.008,-0.143l-0.011,-0.142l-0.012,-0.14l-0.015,-0.139l-0.016,-0.137l-0.019,-0.136l-0.02,-0.134l-0.022,-0.133l-0.025,-0.131l-0.026,-0.13l-0.014,-0.064l-0.014,-0.064l-0.015,-0.064l-0.016,-0.063l-0.015,-0.063l-0.017,-0.062l-0.017,-0.062l-0.017,-0.062l-0.018,-0.061l-0.018,-0.061l-0.019,-0.06l-0.019,-0.061l-0.02,-0.059l-0.021,-0.06l-0.02,-0.059l-0.022,-0.058l-0.021,-0.059l-0.023,-0.058l-0.023,-0.057l-0.023,-0.057l-0.024,-0.057l-0.024,-0.056l-0.025,-0.056l-0.025,-0.056l-0.026,-0.055l-0.026,-0.055l-0.027,-0.055l-0.027,-0.054l-0.028,-0.054l-0.028,-0.053l-0.028,-0.053l-0.03,-0.053l-0.029,-0.052l-0.031,-0.052l-0.061,-0.102l-0.063,-0.102l-0.063,-0.1l-0.065,-0.099l-0.067,-0.098l-0.067,-0.096l-0.069,-0.095l-0.069,-0.094l-0.071,-0.093l-0.072,-0.092l-0.074,-0.09l-0.074,-0.089l-0.076,-0.087l-0.077,-0.087l-0.078,-0.085l-0.079,-0.084l-0.08,-0.082l-0.082,-0.082l-0.083,-0.08l-0.084,-0.079l-0.085,-0.077l-0.086,-0.077l-0.088,-0.075l-0.088,-0.074l-0.09,-0.072l-0.091,-0.072l-0.093,-0.07l-0.093,-0.068l-0.095,-0.068l-0.095,-0.066l-0.097,-0.065l-0.099,-0.064l-0.099,-0.063l-0.1,-0.061l-0.101,-0.06l-0.101,-0.06l-0.103,-0.058l-0.103,-0.056l-0.104,-0.056l-0.105,-0.055l-0.106,-0.053l-0.107,-0.052l-0.107,-0.051l-0.108,-0.05l-0.109,-0.049l-0.11,-0.048l-0.111,-0.046l-0.112,-0.046l-0.112,-0.044l-0.113,-0.043l-0.114,-0.042l-0.115,-0.041l-0.116,-0.039l-0.116,-0.039l-0.118,-0.037l-0.118,-0.036l-0.119,-0.035l-0.12,-0.034l-0.12,-0.033l-0.122,-0.032l-0.122,-0.03l-0.123,-0.029l-0.124,-0.028l-0.125,-0.027l-0.125,-0.026l-0.125,-0.026l-0.126,-0.024l-0.125,-0.023l-0.126,-0.023l-0.126,-0.022l-0.126,-0.021l-0.126,-0.02l-0.126,-0.02l-0.126,-0.018l-0.126,-0.018l-0.127,-0.017l-0.126,-0.016l-0.127,-0.015l-0.127,-0.015l-0.126,-0.013l-0.127,-0.013l-0.127,-0.012l-0.128,-0.011l-0.127,-0.011l-0.127,-0.009l-0.128,-0.009l-0.127,-0.008l-0.128,-0.007l-0.128,-0.006l-0.128,-0.005l-0.128,-0.005l-0.128,-0.003l-0.128,-0.003l-0.129,-0.002l-0.128,-0.002l-0.129,0l-13.891,0Zm12.57,6.395l0.218,0.002l0.213,0.003l0.207,0.005l0.203,0.006l0.197,0.007l0.192,0.008l0.188,0.01l0.182,0.011l0.178,0.012l0.172,0.014l0.167,0.015l0.163,0.016l0.157,0.017l0.152,0.019l0.147,0.02l0.143,0.021l0.139,0.022l0.136,0.023l0.131,0.025l0.128,0.025l0.124,0.026l0.121,0.027l0.116,0.028l0.113,0.03l0.11,0.03l0.105,0.031l0.102,0.032l0.098,0.034l0.094,0.034l0.046,0.017l0.045,0.018l0.044,0.018l0.043,0.018l0.083,0.037l0.08,0.038l0.039,0.02l0.038,0.019l0.037,0.02l0.036,0.02l0.036,0.02l0.034,0.021l0.034,0.02l0.033,0.021l0.032,0.021l0.032,0.022l0.03,0.021l0.03,0.022l0.029,0.022l0.028,0.022l0.027,0.022l0.027,0.023l0.025,0.023l0.025,0.023l0.024,0.023l0.023,0.023l0.022,0.024l0.022,0.024l0.02,0.024l0.02,0.024l0.019,0.025l0.018,0.024l0.017,0.025l0.017,0.025l0.031,0.051l0.029,0.052l0.027,0.052l0.025,0.052l0.024,0.053l0.021,0.054l0.019,0.054l0.017,0.055l0.015,0.056l0.013,0.056l0.011,0.056l0.009,0.057l0.007,0.058l0.005,0.058l0.003,0.059l0.001,0.059l0,0.046l-0.001,0.045l-0.002,0.045l-0.002,0.045l-0.003,0.044l-0.003,0.043l-0.004,0.043l-0.005,0.043l-0.005,0.042l-0.006,0.042l-0.007,0.041l-0.007,0.041l-0.008,0.041l-0.008,0.04l-0.01,0.039l-0.009,0.039l-0.011,0.039l-0.011,0.038l-0.011,0.038l-0.012,0.037l-0.013,0.037l-0.014,0.037l-0.014,0.036l-0.015,0.035l-0.015,0.036l-0.016,0.034l-0.017,0.035l-0.017,0.033l-0.018,0.034l-0.019,0.033l-0.019,0.032l-0.019,0.032l-0.021,0.032l-0.021,0.031l-0.022,0.031l-0.022,0.03l-0.023,0.03l-0.023,0.03l-0.025,0.029l-0.024,0.028l-0.026,0.028l-0.026,0.028l-0.027,0.027l-0.027,0.027l-0.028,0.027l-0.028,0.025l-0.03,0.026l-0.029,0.025l-0.031,0.025l-0.031,0.024l-0.032,0.024l-0.032,0.023l-0.033,0.023l-0.034,0.022l-0.034,0.022l-0.035,0.022l-0.035,0.021l-0.036,0.02l-0.037,0.021l-0.037,0.019l-0.038,0.02l-0.039,0.019l-0.039,0.018l-0.04,0.018l-0.041,0.018l-0.042,0.017l-0.042,0.017l-0.044,0.017l-0.045,0.017l-0.045,0.016l-0.047,0.016l-0.048,0.016l-0.049,0.015l-0.049,0.015l-0.103,0.03l-0.106,0.028l-0.111,0.027l-0.114,0.026l-0.119,0.026l-0.123,0.023l-0.126,0.023l-0.131,0.022l-0.135,0.021l-0.138,0.019l-0.143,0.018l-0.147,0.018l-0.15,0.016l-0.155,0.015l-0.159,0.014l-0.163,0.012l-0.166,0.012l-0.171,0.011l-0.175,0.009l-0.179,0.008l-0.183,0.008l-0.187,0.006l-0.191,0.005l-0.195,0.004l-0.199,0.003l-0.203,0.001l-0.207,0.001l-3.344,0l0,-4.815l3.271,0l0.222,0.001Zm-2.743,0.749l0,3.315l2.593,0l0.204,-0.001l0.199,-0.001l0.195,-0.003l0.19,-0.004l0.186,-0.005l0.182,-0.006l0.178,-0.007l0.173,-0.008l0.169,-0.009l0.165,-0.01l0.161,-0.012l0.156,-0.012l0.152,-0.013l0.148,-0.014l0.143,-0.016l0.138,-0.016l0.135,-0.017l0.13,-0.019l0.125,-0.019l0.121,-0.02l0.116,-0.021l0.112,-0.022l0.107,-0.022l0.102,-0.023l0.097,-0.024l0.093,-0.025l0.09,-0.026l0.04,-0.012l0.041,-0.013l0.039,-0.013l0.038,-0.013l0.037,-0.013l0.036,-0.014l0.035,-0.013l0.033,-0.013l0.032,-0.013l0.03,-0.014l0.03,-0.013l0.029,-0.014l0.028,-0.013l0.027,-0.014l0.027,-0.014l0.026,-0.015l0.025,-0.014l0.025,-0.015l0.023,-0.015l0.024,-0.014l0.022,-0.015l0.022,-0.016l0.021,-0.015l0.021,-0.015l0.02,-0.016l0.02,-0.016l0.019,-0.016l0.018,-0.016l0.018,-0.016l0.017,-0.016l0.017,-0.017l0.016,-0.016l0.016,-0.017l0.015,-0.017l0.015,-0.017l0.015,-0.018l0.014,-0.017l0.013,-0.018l0.014,-0.018l0.013,-0.018l0.012,-0.019l0.012,-0.019l0.012,-0.019l0.011,-0.019l0.011,-0.02l0.011,-0.02l0.011,-0.021l0.01,-0.021l0.01,-0.021l0.009,-0.022l0.009,-0.022l0.009,-0.022l0.009,-0.023l0.008,-0.024l0.008,-0.024l0.007,-0.025l0.008,-0.025l0.007,-0.025l0.006,-0.027l0.006,-0.026l0.006,-0.028l0.005,-0.028l0.005,-0.028l0.005,-0.029l0.004,-0.03l0.004,-0.03l0.004,-0.031l0.003,-0.032l0.002,-0.032l0.002,-0.033l0.002,-0.033l0.001,-0.034l0.001,-0.035l0,-0.032l-0.001,-0.037l-0.001,-0.033l-0.003,-0.032l-0.004,-0.032l-0.005,-0.03l-0.006,-0.03l-0.006,-0.03l-0.008,-0.029l-0.009,-0.029l-0.01,-0.028l-0.012,-0.029l-0.012,-0.028l-0.014,-0.029l-0.015,-0.029l-0.016,-0.029l-0.019,-0.03l-0.004,-0.007l-0.006,-0.009l-0.007,-0.009l-0.007,-0.009l-0.009,-0.01l-0.008,-0.011l-0.01,-0.01l-0.01,-0.011l-0.012,-0.012l-0.012,-0.012l-0.013,-0.012l-0.014,-0.012l-0.015,-0.013l-0.016,-0.013l-0.016,-0.013l-0.018,-0.014l-0.019,-0.014l-0.02,-0.013l-0.021,-0.015l-0.022,-0.014l-0.022,-0.014l-0.024,-0.015l-0.025,-0.015l-0.026,-0.014l-0.027,-0.015l-0.028,-0.015l-0.029,-0.015l-0.028,-0.014l-0.066,-0.031l-0.069,-0.031l-0.032,-0.014l-0.035,-0.014l-0.037,-0.015l-0.036,-0.013l-0.08,-0.03l-0.084,-0.028l-0.087,-0.028l-0.093,-0.027l-0.096,-0.027l-0.102,-0.026l-0.105,-0.025l-0.11,-0.025l-0.114,-0.024l-0.118,-0.024l-0.123,-0.022l-0.126,-0.022l-0.131,-0.021l-0.134,-0.02l-0.138,-0.018l-0.143,-0.018l-0.149,-0.016l-0.154,-0.016l-0.16,-0.014l-0.165,-0.013l-0.17,-0.012l-0.176,-0.01l-0.181,-0.01l-0.187,-0.008l-0.192,-0.007l-0.197,-0.005l-0.202,-0.005l-0.208,-0.003l-0.213,-0.002l-0.219,-0.001l-2.52,0Z"/></g></g><g transform="matrix(2.18382,0,0,2.18382,-27.3887,-52.1534)"><path d="M52.814,46.163l0,5.92l-2.053,0l0,-13.296l6.08,0l0,1.894l-4.027,0l0,3.588l2.99,0l0,1.894l-2.99,0Z" style="fill:#3cccec;fill-rule:nonzero;"/><path d="M65.373,43.013l0,4.844c0,1.396 -0.253,2.446 -0.758,3.15c-0.611,0.85 -1.568,1.276 -2.87,1.276c-1.303,0 -2.26,-0.426 -2.871,-1.276c-0.505,-0.704 -0.757,-1.754 -0.757,-3.15l0,-4.844c0,-1.395 0.252,-2.445 0.757,-3.149c0.611,-0.851 1.568,-1.276 2.871,-1.276c1.302,0 2.259,0.425 2.87,1.276c0.505,0.704 0.758,1.754 0.758,3.149Zm-5.203,0.04l0,4.764c0,0.851 0.086,1.456 0.259,1.814c0.266,0.479 0.704,0.718 1.316,0.718c0.611,0 1.049,-0.239 1.315,-0.718c0.173,-0.332 0.259,-0.936 0.259,-1.814l0,-4.764c0,-0.877 -0.086,-1.482 -0.259,-1.814c-0.266,-0.478 -0.704,-0.717 -1.315,-0.717c-0.612,0 -1.05,0.239 -1.316,0.717c-0.173,0.346 -0.259,0.95 -0.259,1.814Z" style="fill:#3cccec;fill-rule:nonzero;"/><path d="M69.319,46.621l0,5.462l-2.053,0l0,-13.296l3.21,0c1.143,0 2.02,0.266 2.631,0.798c0.797,0.677 1.196,1.681 1.196,3.01c0,1.674 -0.598,2.824 -1.794,3.448l1.953,6.04l-2.152,0l-1.755,-5.462l-1.236,0Zm0,-1.893l0.758,0c0.784,0 1.316,-0.14 1.595,-0.419c0.332,-0.332 0.498,-0.87 0.498,-1.615c0,-0.731 -0.166,-1.262 -0.498,-1.594c-0.279,-0.279 -0.811,-0.419 -1.595,-0.419l-0.758,0l0,4.047Z" style="fill:#3cccec;fill-rule:nonzero;"/><path d="M83.174,43.113l-2.054,0l0,-0.339c0,-1.502 -0.518,-2.252 -1.554,-2.252c-0.585,0 -0.99,0.219 -1.216,0.657c-0.213,0.359 -0.319,0.997 -0.319,1.914l0,4.425c0,0.917 0.073,1.575 0.219,1.974c0.213,0.571 0.658,0.857 1.336,0.857c0.77,0 1.255,-0.458 1.455,-1.375c0.066,-0.253 0.106,-0.771 0.119,-1.555l2.073,0l0,0.438c0,1.449 -0.309,2.549 -0.927,3.299c-0.617,0.751 -1.524,1.127 -2.72,1.127c-1.383,0 -2.373,-0.492 -2.971,-1.475c-0.252,-0.412 -0.422,-0.864 -0.508,-1.356c-0.086,-0.492 -0.13,-1.229 -0.13,-2.213l0,-3.727c0,-1.05 0.054,-1.821 0.16,-2.313c0.106,-0.491 0.312,-0.95 0.618,-1.375c0.598,-0.824 1.535,-1.236 2.811,-1.236c1.156,0 2.046,0.365 2.671,1.096c0.624,0.731 0.937,1.774 0.937,3.13l0,0.299Z" style="fill:#3cccec;fill-rule:nonzero;"/><path d="M90.988,38.787l0,1.894l-3.967,0l0,3.508l2.93,0l0,1.894l-2.93,0l0,4.107l3.967,0l0,1.893l-6.02,0l0,-13.296l6.02,0Z" style="fill:#3cccec;fill-rule:nonzero;"/><path d="M100.437,46.223l-2.931,0l0,5.86l-2.053,0l0,-13.296l2.053,0l0,5.542l2.931,0l0,-5.542l2.053,0l0,13.296l-2.053,0l0,-5.86Z" style="fill:#3cccec;fill-rule:nonzero;"/><path d="M110.523,38.787l0,1.894l-3.967,0l0,3.508l2.931,0l0,1.894l-2.931,0l0,4.107l3.967,0l0,1.893l-6.02,0l0,-13.296l6.02,0Z" style="fill:#3cccec;fill-rule:nonzero;"/><path d="M113.992,46.621l0,5.462l-2.054,0l0,-13.296l3.21,0c1.143,0 2.02,0.266 2.631,0.798c0.798,0.677 1.196,1.681 1.196,3.01c0,1.674 -0.598,2.824 -1.794,3.448l1.954,6.04l-2.153,0l-1.754,-5.462l-1.236,0Zm0,-1.893l0.757,0c0.784,0 1.316,-0.14 1.595,-0.419c0.332,-0.332 0.498,-0.87 0.498,-1.615c0,-0.731 -0.166,-1.262 -0.498,-1.594c-0.279,-0.279 -0.811,-0.419 -1.595,-0.419l-0.757,0l0,4.047Z" style="fill:#3cccec;fill-rule:nonzero;"/><path d="M127.906,43.013l0,4.844c0,1.396 -0.253,2.446 -0.758,3.15c-0.611,0.85 -1.568,1.276 -2.87,1.276c-1.303,0 -2.26,-0.426 -2.871,-1.276c-0.505,-0.704 -0.757,-1.754 -0.757,-3.15l0,-4.844c0,-1.395 0.252,-2.445 0.757,-3.149c0.611,-0.851 1.568,-1.276 2.871,-1.276c1.302,0 2.259,0.425 2.87,1.276c0.505,0.704 0.758,1.754 0.758,3.149Zm-5.203,0.04l0,4.764c0,0.851 0.086,1.456 0.259,1.814c0.266,0.479 0.704,0.718 1.316,0.718c0.611,0 1.05,-0.239 1.315,-0.718c0.173,-0.332 0.259,-0.936 0.259,-1.814l0,-4.764c0,-0.877 -0.086,-1.482 -0.259,-1.814c-0.265,-0.478 -0.704,-0.717 -1.315,-0.717c-0.612,0 -1.05,0.239 -1.316,0.717c-0.173,0.346 -0.259,0.95 -0.259,1.814Z" style="fill:#3cccec;fill-rule:nonzero;"/><path d="M136.776,41.917l-1.973,0.578c-0.319,-1.316 -0.904,-1.973 -1.754,-1.973c-0.386,0 -0.705,0.129 -0.957,0.388c-0.253,0.259 -0.379,0.582 -0.379,0.967c0,0.492 0.186,0.937 0.558,1.336c0.226,0.252 0.811,0.737 1.754,1.455c0.944,0.744 1.602,1.342 1.974,1.794c0.571,0.704 0.857,1.515 0.857,2.432c0,1.01 -0.336,1.827 -1.007,2.452c-0.671,0.624 -1.551,0.937 -2.641,0.937c-2.272,0 -3.615,-1.25 -4.027,-3.748l1.974,-0.578c0.252,1.595 0.937,2.392 2.053,2.392c0.452,0 0.817,-0.139 1.096,-0.419c0.28,-0.279 0.419,-0.644 0.419,-1.096c0,-0.412 -0.133,-0.794 -0.399,-1.146c-0.265,-0.352 -0.79,-0.834 -1.574,-1.445c-0.917,-0.718 -1.489,-1.18 -1.715,-1.386c-0.226,-0.206 -0.465,-0.468 -0.717,-0.787c-0.492,-0.638 -0.738,-1.376 -0.738,-2.213c0,-0.957 0.326,-1.741 0.977,-2.352c0.651,-0.611 1.482,-0.917 2.492,-0.917c1.913,0 3.156,1.11 3.727,3.329Z" style="fill:#3cccec;fill-rule:nonzero;"/></g><path d="M87.49,0.796l24.289,0.21l0,5.844l-8.636,0l0,18.485l-8.342,0l0,-18.485l-8.453,0l0,-0.111l-7.861,0c-0.515,-0.024 -0.815,0.068 -0.901,0.276c-0.085,0.208 0.068,0.668 0.46,1.378c0.392,0.711 1.035,1.746 1.929,3.106c0.894,1.359 2.076,3.166 3.546,5.42c0.49,0.637 0.84,1.433 1.048,2.389c0.208,0.955 0.159,1.88 -0.147,2.775c-0.306,0.894 -0.937,1.659 -1.893,2.296c-0.955,0.637 -2.352,0.956 -4.189,0.956l-76.353,0l0,-5.85l57.72,0l0,0.007l12.238,0c0.49,-0.147 0.845,-0.288 1.066,-0.423c0.22,-0.135 0.227,-0.502 0.018,-1.102c-0.208,-0.601 -0.68,-1.575 -1.415,-2.922c-0.735,-1.348 -1.825,-3.308 -3.27,-5.88c-0.539,-1.103 -0.821,-2.162 -0.846,-3.179c-0.024,-1.017 0.196,-1.905 0.662,-2.664c0.465,-0.76 1.176,-1.366 2.131,-1.819c0.956,-0.454 2.169,-0.68 3.639,-0.68l12.418,-0.034l0,-0.003l0.272,0.002l0.87,-0.002l0,0.01Z" style="fill:#fff;"/><path d="M87.586,0.047l24.2,0.21l0.166,0.02l0.157,0.056l0.141,0.089l0.117,0.119l0.089,0.142l0.055,0.158l0.018,0.166l0,5.843l-0.018,0.167l-0.056,0.158l-0.089,0.142l-0.119,0.119l-0.142,0.089l-0.159,0.056l-0.167,0.019l-7.886,0l0,17.735l-0.019,0.167l-0.055,0.158l-0.09,0.143l-0.118,0.118l-0.142,0.09l-0.159,0.055l-0.167,0.019l-8.342,0l-0.167,-0.019l-0.159,-0.055l-0.142,-0.09l-0.119,-0.118l-0.089,-0.143l-0.055,-0.158l-0.019,-0.167l0,-17.735l-7.703,0l-0.167,-0.019l-0.158,-0.056l-0.057,-0.036l-7.495,0l-0.041,-0.001l0.005,0.012l0.02,0.044l0.021,0.047l0.023,0.048l0.025,0.051l0.026,0.052l0.027,0.053l0.06,0.115l0.066,0.122l0.073,0.13l0.079,0.139l0.085,0.148l0.092,0.156l0.098,0.163l0.103,0.172l0.11,0.179l0.116,0.188l0.122,0.195l0.128,0.203l0.134,0.211l0.14,0.219l0.145,0.226l0.152,0.234l0.158,0.242l0.164,0.25l0.725,1.104l0.833,1.272l0.941,1.439l1.034,1.586l0.034,0.044l0.052,0.071l0.05,0.071l0.05,0.073l0.049,0.074l0.048,0.075l0.046,0.075l0.046,0.077l0.044,0.077l0.044,0.079l0.042,0.079l0.042,0.08l0.04,0.081l0.04,0.082l0.038,0.083l0.038,0.084l0.036,0.085l0.036,0.085l0.034,0.086l0.033,0.088l0.033,0.088l0.031,0.089l0.031,0.089l0.029,0.091l0.028,0.091l0.028,0.092l0.026,0.094l0.026,0.093l0.025,0.095l0.023,0.096l0.023,0.096l0.022,0.098l0.021,0.1l0.019,0.101l0.018,0.101l0.016,0.101l0.015,0.101l0.013,0.101l0.011,0.101l0.009,0.101l0.008,0.1l0.006,0.101l0.004,0.1l0.003,0.101l0,0.1l-0.001,0.1l-0.002,0.1l-0.005,0.1l-0.006,0.1l-0.008,0.099l-0.009,0.1l-0.012,0.099l-0.013,0.099l-0.015,0.098l-0.016,0.099l-0.019,0.098l-0.02,0.098l-0.021,0.098l-0.024,0.097l-0.025,0.097l-0.027,0.097l-0.028,0.097l-0.031,0.096l-0.032,0.097l-0.035,0.098l-0.038,0.099l-0.04,0.098l-0.042,0.097l-0.045,0.097l-0.046,0.095l-0.049,0.094l-0.052,0.093l-0.053,0.092l-0.055,0.091l-0.058,0.09l-0.06,0.089l-0.062,0.088l-0.064,0.086l-0.066,0.086l-0.068,0.084l-0.07,0.084l-0.072,0.082l-0.075,0.081l-0.076,0.08l-0.078,0.079l-0.08,0.078l-0.081,0.076l-0.084,0.076l-0.086,0.074l-0.087,0.073l-0.09,0.072l-0.091,0.071l-0.093,0.07l-0.095,0.069l-0.096,0.068l-0.098,0.066l-0.054,0.036l-0.055,0.035l-0.055,0.034l-0.056,0.033l-0.056,0.033l-0.057,0.032l-0.057,0.031l-0.058,0.031l-0.059,0.03l-0.059,0.03l-0.06,0.029l-0.06,0.028l-0.061,0.028l-0.062,0.027l-0.062,0.026l-0.063,0.026l-0.063,0.026l-0.064,0.024l-0.064,0.024l-0.065,0.024l-0.066,0.023l-0.066,0.022l-0.067,0.022l-0.067,0.021l-0.068,0.021l-0.068,0.02l-0.069,0.019l-0.069,0.019l-0.07,0.019l-0.071,0.017l-0.071,0.018l-0.072,0.016l-0.072,0.016l-0.073,0.016l-0.073,0.015l-0.074,0.015l-0.075,0.014l-0.075,0.013l-0.075,0.013l-0.078,0.013l-0.153,0.023l-0.156,0.021l-0.158,0.019l-0.161,0.017l-0.163,0.015l-0.166,0.013l-0.167,0.01l-0.17,0.009l-0.173,0.007l-0.174,0.005l-0.177,0.003l-0.177,0.001l-76.355,0l-0.167,-0.019l-0.158,-0.055l-0.142,-0.09l-0.119,-0.118l-0.089,-0.143l-0.056,-0.158l-0.019,-0.167l0,-5.85l0.019,-0.167l0.056,-0.158l0.089,-0.143l0.119,-0.118l0.142,-0.09l0.158,-0.055l0.167,-0.019l57.72,0l0.06,0.007l12.066,0l0.062,-0.02l0.077,-0.025l0.074,-0.024l0.069,-0.025l0.067,-0.023l0.062,-0.024l0.059,-0.022l0.054,-0.022l0.051,-0.022l0.004,-0.002l-0.001,-0.007l-0.007,-0.031l-0.008,-0.034l-0.009,-0.036l-0.011,-0.039l-0.012,-0.04l-0.013,-0.043l-0.014,-0.044l-0.016,-0.047l-0.018,-0.049l-0.019,-0.051l-0.02,-0.055l-0.023,-0.057l-0.024,-0.06l-0.025,-0.063l-0.028,-0.065l-0.028,-0.067l-0.064,-0.145l-0.069,-0.152l-0.076,-0.163l-0.083,-0.172l-0.088,-0.182l-0.096,-0.19l-0.101,-0.2l-0.108,-0.21l-0.114,-0.218l-0.121,-0.227l-0.127,-0.237l-0.133,-0.245l-0.291,-0.532l-0.325,-0.59l-0.358,-0.648l-0.392,-0.705l-0.425,-0.763l-0.458,-0.82l-0.492,-0.878l-0.537,-0.956l-0.061,-0.128l-0.052,-0.111l-0.05,-0.11l-0.049,-0.11l-0.047,-0.111l-0.046,-0.11l-0.044,-0.11l-0.042,-0.11l-0.041,-0.11l-0.04,-0.109l-0.038,-0.11l-0.036,-0.109l-0.034,-0.11l-0.033,-0.109l-0.032,-0.11l-0.03,-0.109l-0.028,-0.109l-0.026,-0.109l-0.025,-0.109l-0.024,-0.109l-0.022,-0.108l-0.02,-0.109l-0.018,-0.108l-0.017,-0.109l-0.015,-0.108l-0.014,-0.108l-0.011,-0.108l-0.011,-0.108l-0.008,-0.108l-0.007,-0.107l-0.005,-0.108l-0.003,-0.107l-0.002,-0.106l0,-0.106l0.001,-0.105l0.003,-0.104l0.005,-0.104l0.006,-0.103l0.008,-0.103l0.01,-0.102l0.011,-0.102l0.013,-0.1l0.015,-0.101l0.016,-0.099l0.018,-0.099l0.02,-0.099l0.021,-0.097l0.024,-0.097l0.024,-0.097l0.027,-0.095l0.028,-0.095l0.03,-0.094l0.032,-0.093l0.033,-0.093l0.036,-0.092l0.036,-0.091l0.039,-0.09l0.04,-0.089l0.042,-0.089l0.044,-0.088l0.045,-0.086l0.047,-0.086l0.049,-0.085l0.051,-0.084l0.052,-0.084l0.054,-0.082l0.056,-0.082l0.057,-0.08l0.059,-0.08l0.061,-0.078l0.063,-0.077l0.064,-0.076l0.065,-0.074l0.067,-0.074l0.069,-0.072l0.071,-0.071l0.071,-0.07l0.074,-0.069l0.075,-0.068l0.076,-0.066l0.078,-0.065l0.079,-0.064l0.081,-0.063l0.082,-0.062l0.084,-0.06l0.085,-0.06l0.086,-0.058l0.088,-0.057l0.089,-0.055l0.091,-0.055l0.092,-0.053l0.093,-0.052l0.095,-0.052l0.096,-0.05l0.097,-0.048l0.1,-0.048l0.102,-0.048l0.104,-0.046l0.106,-0.044l0.107,-0.043l0.108,-0.041l0.11,-0.039l0.111,-0.038l0.113,-0.036l0.114,-0.035l0.115,-0.033l0.116,-0.032l0.118,-0.03l0.119,-0.028l0.121,-0.027l0.122,-0.026l0.123,-0.024l0.124,-0.022l0.126,-0.021l0.127,-0.019l0.129,-0.018l0.129,-0.017l0.131,-0.015l0.133,-0.013l0.133,-0.012l0.135,-0.011l0.137,-0.009l0.137,-0.008l0.139,-0.006l0.141,-0.005l0.141,-0.003l0.143,-0.003l0.142,0l12.398,-0.034l0.03,-0.003l0.268,0.002l0.865,-0.002l0.098,0.011Zm-0.966,0.741l-0.272,-0.002l0,0.003l-12.418,0.034l-0.137,0l-0.136,0.002l-0.134,0.004l-0.132,0.004l-0.131,0.006l-0.13,0.008l-0.128,0.008l-0.127,0.01l-0.125,0.012l-0.123,0.012l-0.122,0.014l-0.12,0.015l-0.119,0.017l-0.118,0.018l-0.116,0.019l-0.114,0.021l-0.113,0.022l-0.112,0.023l-0.11,0.024l-0.108,0.026l-0.107,0.028l-0.105,0.028l-0.104,0.03l-0.103,0.031l-0.101,0.033l-0.099,0.034l-0.098,0.035l-0.096,0.036l-0.095,0.038l-0.093,0.039l-0.092,0.041l-0.091,0.042l-0.088,0.043l-0.088,0.043l-0.086,0.045l-0.084,0.046l-0.083,0.046l-0.082,0.048l-0.08,0.048l-0.079,0.049l-0.078,0.05l-0.076,0.051l-0.074,0.052l-0.073,0.053l-0.072,0.054l-0.07,0.054l-0.069,0.056l-0.067,0.056l-0.066,0.058l-0.064,0.058l-0.063,0.059l-0.062,0.06l-0.06,0.061l-0.059,0.062l-0.057,0.062l-0.056,0.064l-0.054,0.064l-0.053,0.066l-0.052,0.066l-0.05,0.067l-0.049,0.068l-0.047,0.069l-0.046,0.07l-0.044,0.071l-0.043,0.071l-0.041,0.073l-0.04,0.073l-0.039,0.074l-0.037,0.074l-0.036,0.076l-0.034,0.076l-0.033,0.076l-0.032,0.078l-0.03,0.078l-0.028,0.08l-0.027,0.079l-0.026,0.081l-0.024,0.081l-0.023,0.083l-0.022,0.082l-0.019,0.084l-0.019,0.084l-0.017,0.086l-0.016,0.086l-0.014,0.086l-0.013,0.088l-0.011,0.088l-0.01,0.089l-0.008,0.089l-0.007,0.091l-0.006,0.091l-0.004,0.092l-0.003,0.093l-0.001,0.093l0,0.094l0.001,0.095l0.004,0.096l0.004,0.095l0.006,0.096l0.008,0.096l0.009,0.097l0.01,0.097l0.012,0.097l0.014,0.097l0.015,0.097l0.017,0.098l0.018,0.098l0.02,0.098l0.021,0.099l0.022,0.098l0.025,0.099l0.025,0.099l0.027,0.1l0.029,0.1l0.03,0.1l0.032,0.1l0.033,0.1l0.035,0.101l0.036,0.101l0.038,0.101l0.039,0.102l0.041,0.101l0.042,0.102l0.044,0.103l0.045,0.102l0.047,0.103l0.048,0.103l0.05,0.103l0.525,0.936l0.492,0.879l0.459,0.821l0.426,0.763l0.392,0.707l0.359,0.649l0.325,0.591l0.292,0.534l0.135,0.248l0.129,0.24l0.122,0.231l0.116,0.222l0.11,0.213l0.104,0.204l0.098,0.196l0.091,0.187l0.086,0.178l0.079,0.17l0.073,0.16l0.067,0.152l0.031,0.073l0.029,0.071l0.028,0.068l0.027,0.066l0.025,0.064l0.023,0.062l0.022,0.059l0.02,0.058l0.019,0.055l0.018,0.054l0.016,0.053l0.015,0.052l0.014,0.05l0.013,0.049l0.011,0.047l0.01,0.046l0.009,0.045l0.008,0.043l0.006,0.042l0.005,0.041l0.004,0.039l0.003,0.038l0.001,0.036l0,0.035l-0.001,0.034l-0.003,0.033l-0.003,0.031l-0.005,0.029l-0.007,0.029l-0.007,0.027l-0.009,0.025l-0.01,0.024l-0.011,0.023l-0.013,0.022l-0.013,0.02l-0.015,0.019l-0.017,0.017l-0.017,0.016l-0.019,0.015l-0.02,0.013l-0.043,0.025l-0.046,0.026l-0.049,0.026l-0.053,0.025l-0.055,0.026l-0.059,0.026l-0.062,0.027l-0.065,0.026l-0.068,0.026l-0.071,0.027l-0.075,0.027l-0.078,0.027l-0.08,0.027l-0.084,0.027l-0.087,0.027l-0.091,0.028l-12.238,0l0,-0.007l-57.72,0l0,5.85l76.353,0l0.171,-0.001l0.168,-0.003l0.166,-0.004l0.163,-0.007l0.161,-0.008l0.158,-0.011l0.155,-0.012l0.153,-0.014l0.151,-0.016l0.147,-0.017l0.145,-0.02l0.143,-0.021l0.07,-0.012l0.07,-0.012l0.069,-0.012l0.068,-0.013l0.068,-0.013l0.067,-0.014l0.067,-0.014l0.065,-0.015l0.065,-0.015l0.065,-0.016l0.064,-0.016l0.063,-0.016l0.063,-0.017l0.061,-0.018l0.062,-0.018l0.06,-0.018l0.06,-0.019l0.06,-0.02l0.058,-0.019l0.058,-0.021l0.058,-0.02l0.056,-0.022l0.057,-0.021l0.055,-0.022l0.055,-0.023l0.054,-0.023l0.053,-0.024l0.053,-0.024l0.052,-0.024l0.052,-0.025l0.051,-0.026l0.05,-0.026l0.05,-0.026l0.049,-0.027l0.048,-0.027l0.048,-0.028l0.047,-0.028l0.046,-0.029l0.046,-0.029l0.045,-0.03l0.089,-0.06l0.087,-0.06l0.084,-0.062l0.083,-0.062l0.081,-0.064l0.079,-0.063l0.078,-0.065l0.075,-0.065l0.073,-0.066l0.072,-0.067l0.07,-0.068l0.067,-0.068l0.066,-0.07l0.064,-0.069l0.062,-0.071l0.06,-0.071l0.058,-0.073l0.056,-0.073l0.055,-0.073l0.052,-0.075l0.051,-0.075l0.049,-0.076l0.046,-0.076l0.045,-0.078l0.043,-0.078l0.041,-0.079l0.04,-0.08l0.037,-0.08l0.035,-0.081l0.034,-0.082l0.031,-0.083l0.03,-0.083l0.028,-0.084l0.026,-0.084l0.025,-0.085l0.024,-0.084l0.022,-0.085l0.02,-0.085l0.019,-0.085l0.017,-0.085l0.016,-0.085l0.015,-0.086l0.012,-0.085l0.012,-0.086l0.01,-0.086l0.008,-0.087l0.007,-0.086l0.005,-0.087l0.004,-0.087l0.002,-0.086l0.001,-0.088l0,-0.087l-0.003,-0.087l-0.003,-0.088l-0.005,-0.088l-0.007,-0.088l-0.008,-0.088l-0.01,-0.089l-0.011,-0.088l-0.013,-0.089l-0.014,-0.089l-0.016,-0.089l-0.017,-0.09l-0.019,-0.089l-0.02,-0.089l-0.021,-0.088l-0.021,-0.088l-0.023,-0.086l-0.023,-0.085l-0.024,-0.085l-0.025,-0.083l-0.026,-0.083l-0.026,-0.081l-0.028,-0.081l-0.028,-0.08l-0.029,-0.079l-0.03,-0.078l-0.03,-0.077l-0.032,-0.076l-0.032,-0.075l-0.033,-0.074l-0.034,-0.073l-0.035,-0.073l-0.036,-0.071l-0.036,-0.07l-0.037,-0.07l-0.039,-0.068l-0.038,-0.068l-0.04,-0.067l-0.041,-0.066l-0.041,-0.064l-0.042,-0.064l-0.043,-0.063l-0.044,-0.062l-0.045,-0.062l-0.046,-0.06l-1.048,-1.606l-0.941,-1.439l-0.832,-1.272l-0.725,-1.103l-0.165,-0.252l-0.158,-0.243l-0.153,-0.236l-0.147,-0.228l-0.142,-0.221l-0.135,-0.213l-0.129,-0.206l-0.124,-0.198l-0.118,-0.19l-0.111,-0.182l-0.106,-0.176l-0.1,-0.167l-0.094,-0.16l-0.089,-0.152l-0.082,-0.145l-0.076,-0.137l-0.071,-0.13l-0.065,-0.124l-0.031,-0.06l-0.029,-0.059l-0.027,-0.057l-0.026,-0.056l-0.025,-0.054l-0.024,-0.052l-0.022,-0.051l-0.02,-0.05l-0.02,-0.048l-0.018,-0.047l-0.016,-0.045l-0.015,-0.044l-0.014,-0.042l-0.012,-0.041l-0.011,-0.04l-0.009,-0.038l-0.008,-0.036l-0.007,-0.035l-0.005,-0.034l-0.004,-0.032l-0.003,-0.03l-0.001,-0.029l0.001,-0.028l0.001,-0.026l0.004,-0.025l0.004,-0.023l0.006,-0.022l0.007,-0.02l0.009,-0.019l0.01,-0.019l0.011,-0.017l0.013,-0.018l0.013,-0.016l0.015,-0.016l0.016,-0.015l0.018,-0.014l0.019,-0.014l0.02,-0.013l0.021,-0.012l0.022,-0.012l0.024,-0.011l0.025,-0.01l0.026,-0.01l0.028,-0.009l0.029,-0.008l0.03,-0.008l0.031,-0.007l0.032,-0.006l0.034,-0.006l0.035,-0.004l0.036,-0.005l0.038,-0.003l0.039,-0.003l0.04,-0.002l0.041,-0.001l0.043,-0.001l0.044,0l0.045,0l0.046,0.002l0.048,0.001l7.861,0l0,0.111l8.453,0l0,18.485l8.342,0l0,-18.485l8.636,0l0,-5.844l-24.289,-0.21l0,-0.01l-0.87,0.002Z"/><g><g><path d="M184.228,25.041l-6.762,-24.218l8.379,0l2.977,11.098l2.462,-11.098l9.849,0l2.793,11.098l2.866,-11.098l8.306,0l-6.321,24.218l-9.482,0l-2.829,-11.429l-2.573,11.429l-9.665,0Z" style="fill:#fff;fill-rule:nonzero;"/><path d="M185.943,0.079l0.096,0.019l0.093,0.032l0.088,0.043l0.081,0.055l0.074,0.064l0.065,0.074l0.054,0.082l0.044,0.088l0.031,0.092l2.184,8.141l1.799,-8.109l0.028,-0.097l0.042,-0.092l0.053,-0.087l0.065,-0.078l0.074,-0.068l0.084,-0.058l0.09,-0.046l0.095,-0.034l0.1,-0.02l0.101,-0.007l9.849,0l0.099,0.006l0.097,0.02l0.094,0.032l0.089,0.045l0.082,0.055l0.074,0.066l0.065,0.076l0.054,0.083l0.043,0.089l0.03,0.095l2.075,8.246l2.131,-8.251l0.031,-0.094l0.043,-0.089l0.055,-0.082l0.064,-0.075l0.074,-0.065l0.082,-0.055l0.089,-0.044l0.093,-0.032l0.097,-0.02l0.098,-0.006l8.306,0l0.105,0.007l0.103,0.022l0.099,0.036l0.092,0.05l0.085,0.062l0.076,0.074l0.064,0.083l0.052,0.092l0.039,0.097l0.025,0.103l0.01,0.105l-0.005,0.105l-0.019,0.103l-6.321,24.218l-0.032,0.094l-0.043,0.089l-0.054,0.082l-0.065,0.074l-0.074,0.066l-0.081,0.055l-0.089,0.043l-0.093,0.032l-0.097,0.02l-0.098,0.006l-9.482,0l-0.099,-0.007l-0.097,-0.019l-0.095,-0.033l-0.089,-0.044l-0.082,-0.056l-0.074,-0.067l-0.065,-0.075l-0.054,-0.084l-0.042,-0.09l-0.031,-0.095l-2.067,-8.348l-1.875,8.333l-0.029,0.097l-0.042,0.092l-0.053,0.086l-0.065,0.077l-0.074,0.069l-0.083,0.057l-0.09,0.046l-0.096,0.034l-0.099,0.02l-0.101,0.007l-9.665,0l-0.097,-0.006l-0.096,-0.019l-0.092,-0.031l-0.087,-0.043l-0.082,-0.054l-0.073,-0.063l-0.065,-0.073l-0.054,-0.081l-0.044,-0.086l-0.032,-0.092l-6.762,-24.219l-0.021,-0.096l-0.007,-0.099l0.006,-0.098l0.018,-0.097l0.031,-0.094l0.043,-0.088l0.054,-0.083l0.065,-0.074l0.074,-0.066l0.082,-0.055l0.088,-0.044l0.094,-0.031l0.096,-0.02l0.099,-0.006l8.379,0l0.098,0.006Zm-8.477,0.744l6.762,24.218l9.665,0l2.573,-11.429l2.829,11.429l9.482,0l6.321,-24.218l-8.306,0l-2.866,11.098l-2.793,-11.098l-9.849,0l-2.462,11.098l-2.977,-11.098l-8.379,0Z"/></g><g><path d="M236.964,25.041l-1.507,-4.337l-8.783,0l-1.249,4.337l-8.857,0l6.615,-24.218l15.913,0l6.798,24.218l-8.93,0Zm-8.857,-9.592l6.321,0l-3.381,-9.555l-2.94,9.555Z" style="fill:#fff;fill-rule:nonzero;"/><path d="M239.184,0.078l0.087,0.016l0.084,0.025l0.081,0.036l0.077,0.044l0.07,0.054l0.064,0.061l0.056,0.068l0.047,0.075l0.039,0.079l0.029,0.084l6.798,24.218l0.02,0.09l0.008,0.092l-0.003,0.092l-0.014,0.091l-0.026,0.089l-0.036,0.085l-0.046,0.079l-0.056,0.074l-0.064,0.066l-0.072,0.058l-0.078,0.048l-0.084,0.039l-0.088,0.027l-0.091,0.017l-0.092,0.006l-8.93,0l-0.092,-0.006l-0.091,-0.017l-0.089,-0.028l-0.084,-0.039l-0.079,-0.049l-0.072,-0.058l-0.064,-0.067l-0.056,-0.074l-0.046,-0.08l-0.035,-0.086l-1.332,-3.832l-7.685,0l-1.094,3.794l-0.029,0.083l-0.039,0.078l-0.047,0.074l-0.056,0.068l-0.064,0.061l-0.07,0.053l-0.076,0.044l-0.081,0.035l-0.084,0.025l-0.087,0.016l-0.087,0.005l-8.857,0l-0.092,-0.006l-0.09,-0.016l-0.088,-0.028l-0.083,-0.038l-0.078,-0.048l-0.072,-0.058l-0.064,-0.065l-0.056,-0.073l-0.046,-0.079l-0.037,-0.085l-0.025,-0.088l-0.015,-0.09l-0.004,-0.092l0.008,-0.092l0.018,-0.09l6.615,-24.218l0.029,-0.084l0.038,-0.08l0.047,-0.075l0.056,-0.069l0.064,-0.062l0.071,-0.054l0.076,-0.045l0.082,-0.036l0.085,-0.026l0.087,-0.016l0.089,-0.005l15.913,0l0.088,0.005Zm-16.001,0.745l-6.615,24.218l8.857,0l1.249,-4.337l8.783,0l1.507,4.337l8.93,0l-6.798,-24.218l-15.913,0Zm11.245,14.626l-6.321,0l2.94,-9.555l3.381,9.555Zm-5.305,-0.75l4.244,0l-2.27,-6.416l-1.974,6.416Z"/></g><path d="M298.005,0.009l0.109,0.025l0.104,0.043l0.096,0.058l0.085,0.073l0.073,0.085l0.058,0.096l0.043,0.103l0.026,0.109l0.009,0.111l0,5.954l-0.009,0.111l-0.026,0.109l-0.043,0.103l-0.058,0.096l-0.073,0.085l-0.085,0.072l-0.095,0.059l-0.103,0.043l-0.109,0.026l-0.111,0.009l-9.019,0l-0.057,-0.003l-0.037,-0.001l-0.005,0l0.009,0.023l0.019,0.043l0.02,0.045l0.022,0.047l0.023,0.049l0.024,0.051l0.026,0.052l0.027,0.054l0.061,0.115l0.066,0.122l0.073,0.131l0.08,0.14l0.085,0.147l0.092,0.156l0.098,0.164l0.104,0.172l0.11,0.179l0.115,0.188l0.122,0.195l0.128,0.204l0.134,0.211l0.14,0.218l0.146,0.227l0.152,0.234l0.158,0.242l0.164,0.25l0.725,1.104l0.833,1.272l0.941,1.439l1.035,1.587l0.034,0.045l0.051,0.07l0.051,0.071l0.049,0.073l0.049,0.073l0.047,0.074l0.046,0.075l0.046,0.076l0.044,0.077l0.043,0.078l0.042,0.079l0.042,0.08l0.04,0.08l0.039,0.082l0.038,0.082l0.038,0.084l0.036,0.084l0.035,0.085l0.034,0.086l0.033,0.086l0.033,0.088l0.031,0.088l0.03,0.09l0.029,0.09l0.029,0.091l0.027,0.091l0.026,0.093l0.026,0.094l0.024,0.094l0.024,0.095l0.023,0.096l0.021,0.098l0.021,0.099l0.02,0.101l0.017,0.1l0.017,0.1l0.014,0.101l0.013,0.1l0.011,0.1l0.009,0.1l0.008,0.1l0.006,0.1l0.004,0.1l0.002,0.1l0.001,0.099l-0.001,0.1l-0.003,0.099l-0.004,0.1l-0.006,0.099l-0.008,0.098l-0.01,0.099l-0.011,0.099l-0.013,0.098l-0.015,0.098l-0.016,0.098l-0.018,0.097l-0.02,0.098l-0.022,0.097l-0.023,0.096l-0.025,0.097l-0.027,0.096l-0.028,0.096l-0.03,0.096l-0.032,0.096l-0.035,0.098l-0.037,0.098l-0.04,0.097l-0.042,0.097l-0.044,0.095l-0.047,0.094l-0.048,0.094l-0.051,0.092l-0.053,0.091l-0.055,0.091l-0.057,0.089l-0.06,0.088l-0.061,0.087l-0.064,0.086l-0.065,0.085l-0.068,0.084l-0.07,0.083l-0.071,0.081l-0.074,0.081l-0.075,0.079l-0.078,0.079l-0.079,0.077l-0.082,0.076l-0.083,0.075l-0.085,0.074l-0.087,0.073l-0.089,0.071l-0.09,0.071l-0.093,0.069l-0.094,0.069l-0.096,0.067l-0.098,0.067l-0.054,0.035l-0.054,0.034l-0.054,0.034l-0.055,0.033l-0.056,0.033l-0.057,0.031l-0.057,0.032l-0.057,0.03l-0.059,0.03l-0.058,0.03l-0.06,0.028l-0.06,0.029l-0.06,0.027l-0.062,0.027l-0.061,0.026l-0.063,0.026l-0.063,0.025l-0.063,0.025l-0.064,0.024l-0.065,0.023l-0.065,0.023l-0.066,0.022l-0.066,0.022l-0.067,0.021l-0.067,0.02l-0.068,0.02l-0.069,0.02l-0.069,0.019l-0.07,0.018l-0.07,0.018l-0.071,0.017l-0.071,0.016l-0.072,0.016l-0.073,0.016l-0.073,0.015l-0.073,0.014l-0.074,0.014l-0.075,0.014l-0.075,0.012l-0.078,0.013l-0.152,0.023l-0.155,0.021l-0.158,0.019l-0.161,0.017l-0.162,0.015l-0.165,0.013l-0.167,0.01l-0.17,0.009l-0.172,0.007l-0.174,0.005l-0.176,0.003l-0.177,0.001l-18.634,0l-0.112,-0.009l-0.109,-0.026l-0.103,-0.043l-0.053,-0.032l-2.122,0l-0.078,-0.004l-0.077,-0.013l-0.128,-0.029l-0.13,-0.03l-0.129,-0.03l-0.129,-0.032l-0.127,-0.032l-0.127,-0.033l-0.126,-0.034l-0.125,-0.035l-0.124,-0.035l-0.123,-0.036l-0.122,-0.038l-0.122,-0.038l-0.121,-0.038l-0.119,-0.04l-0.119,-0.04l-0.118,-0.042l-0.118,-0.042l-0.116,-0.042l-0.116,-0.044l-0.114,-0.045l-0.114,-0.045l-0.113,-0.046l-0.112,-0.047l-0.111,-0.048l-0.111,-0.049l-0.109,-0.049l-0.109,-0.051l-0.108,-0.051l-0.106,-0.052l-0.107,-0.053l-0.105,-0.053l-0.103,-0.055l-0.102,-0.054l-0.101,-0.054l-0.1,-0.055l-0.1,-0.056l-0.099,-0.056l-0.099,-0.057l-0.098,-0.057l-0.098,-0.057l-0.097,-0.059l-0.097,-0.058l-0.097,-0.06l-0.096,-0.059l-0.095,-0.061l-0.095,-0.061l-0.095,-0.061l-0.094,-0.062l-0.094,-0.062l-0.093,-0.063l-0.093,-0.064l-0.092,-0.064l-0.091,-0.064l-0.092,-0.065l-0.091,-0.066l-0.09,-0.066l-0.09,-0.067l-0.089,-0.067l-0.089,-0.068l-0.088,-0.068l-0.088,-0.069l-0.088,-0.069l-0.087,-0.07l-0.086,-0.071l-0.169,-0.14l-0.168,-0.141l-0.167,-0.143l-0.166,-0.144l-0.164,-0.145l-0.163,-0.147l-0.161,-0.148l-0.16,-0.149l-0.159,-0.151l-0.158,-0.152l-0.156,-0.153l-0.155,-0.155l-0.153,-0.156l-0.152,-0.157l-0.151,-0.159l-0.148,-0.159l-0.578,-0.623l-0.485,-0.52l0,6.06l-0.009,0.111l-0.026,0.109l-0.043,0.103l-0.058,0.096l-0.073,0.085l-0.085,0.072l-0.095,0.059l-0.104,0.043l-0.108,0.026l-0.112,0.009l-9.004,0l-0.111,-0.009l-0.109,-0.026l-0.103,-0.043l-0.095,-0.059l-0.085,-0.072l-0.073,-0.085l-0.058,-0.096l-0.043,-0.103l-0.026,-0.109l-0.009,-0.111l0,-24.255l0.009,-0.111l0.026,-0.109l0.043,-0.103l0.058,-0.096l0.073,-0.085l0.085,-0.072l0.095,-0.059l0.103,-0.043l0.109,-0.026l0.111,-0.009l13.893,0l0.132,0.001l0.133,0.001l0.133,0.002l0.133,0.003l0.133,0.004l0.132,0.005l0.133,0.005l0.132,0.007l0.133,0.007l0.132,0.008l0.132,0.009l0.132,0.01l0.132,0.011l0.132,0.011l0.131,0.013l0.132,0.013l0.131,0.014l0.132,0.015l0.131,0.016l0.131,0.017l0.131,0.017l0.131,0.019l0.131,0.019l0.131,0.02l0.13,0.021l0.131,0.022l0.13,0.022l0.13,0.024l0.13,0.024l0.13,0.025l0.13,0.027l0.131,0.027l0.131,0.028l0.131,0.03l0.13,0.031l0.13,0.032l0.128,0.033l0.128,0.035l0.127,0.036l0.127,0.037l0.125,0.039l0.125,0.039l0.124,0.041l0.123,0.043l0.122,0.043l0.122,0.045l0.121,0.046l0.12,0.047l0.119,0.048l0.118,0.05l0.117,0.051l0.117,0.052l0.116,0.053l0.115,0.055l0.114,0.056l0.113,0.057l0.113,0.059l0.111,0.059l0.111,0.061l0.11,0.062l0.109,0.064l0.108,0.065l0.107,0.065l0.107,0.068l0.107,0.069l0.105,0.071l0.105,0.072l0.103,0.074l0.102,0.075l0.1,0.076l0.1,0.078l0.098,0.079l0.097,0.081l0.095,0.082l0.095,0.084l0.093,0.084l0.091,0.086l0.091,0.088l0.089,0.089l0.088,0.09l0.086,0.092l0.086,0.093l0.084,0.094l0.082,0.096l0.081,0.097l0.08,0.098l0.079,0.1l0.077,0.101l0.076,0.102l0.075,0.103l0.073,0.105l0.072,0.106l0.07,0.108l0.07,0.109l0.067,0.109l0.067,0.111l0.034,0.059l0.033,0.058l0.033,0.059l0.032,0.06l0.032,0.06l0.031,0.06l0.03,0.06l0.03,0.061l0.029,0.061l0.029,0.062l0.028,0.062l0.028,0.063l0.027,0.062l0.026,0.064l0.026,0.063l0.025,0.064l0.025,0.065l0.024,0.064l0.024,0.065l0.023,0.066l0.023,0.065l0.021,0.066l0.022,0.067l0.021,0.066l0.02,0.068l0.02,0.067l0.019,0.068l0.018,0.068l0.018,0.069l0.017,0.069l0.017,0.069l0.017,0.069l0.015,0.07l0.016,0.072l0.028,0.14l0.027,0.143l0.024,0.144l0.022,0.146l0.02,0.147l0.018,0.148l0.016,0.149l0.013,0.151l0.011,0.152l0.01,0.154l0.007,0.155l0.004,0.156l0.003,0.157l0.001,0.159l-0.001,0.16l-0.003,0.13l-0.003,0.126l-0.004,0.124l-0.005,0.123l-0.005,0.123l-0.006,0.12l-0.007,0.12l-0.007,0.118l-0.007,0.117l-0.009,0.116l-0.009,0.115l-0.01,0.113l-0.01,0.113l-0.011,0.111l-0.012,0.109l-0.012,0.109l-0.013,0.107l-0.014,0.107l-0.014,0.105l-0.015,0.103l-0.016,0.103l-0.016,0.101l-0.017,0.101l-0.018,0.099l-0.018,0.097l-0.02,0.097l-0.019,0.096l-0.021,0.094l-0.021,0.093l-0.022,0.092l-0.023,0.091l-0.023,0.089l-0.024,0.087l-0.023,0.085l-0.024,0.084l-0.025,0.083l-0.025,0.083l-0.025,0.082l-0.026,0.081l-0.026,0.08l-0.027,0.08l-0.027,0.078l-0.028,0.078l-0.028,0.078l-0.028,0.076l-0.029,0.076l-0.029,0.074l-0.03,0.075l-0.03,0.073l-0.031,0.072l-0.031,0.072l-0.031,0.071l-0.032,0.07l-0.033,0.07l-0.033,0.068l-0.033,0.068l-0.034,0.067l-0.035,0.067l-0.035,0.065l-0.035,0.065l-0.036,0.064l-0.037,0.063l-0.037,0.062l-0.038,0.063l-0.073,0.116l-0.075,0.115l-0.075,0.11l-0.039,0.057l-0.039,0.054l-0.04,0.054l-0.039,0.053l-0.04,0.052l-0.04,0.052l-0.041,0.051l-0.04,0.051l-0.042,0.049l-0.041,0.05l-0.042,0.048l-0.042,0.048l-0.043,0.047l-0.043,0.047l-0.043,0.046l-0.044,0.045l-0.044,0.045l-0.044,0.043l-0.045,0.044l-0.045,0.042l-0.045,0.042l-0.046,0.041l-0.046,0.04l-0.047,0.04l-0.046,0.039l-0.047,0.038l-0.165,0.131l-0.162,0.126l-0.159,0.121l-0.157,0.117l-0.154,0.113l-0.152,0.108l-0.149,0.104l-0.143,0.096l-0.087,0.051l-0.094,0.037l-0.448,0.144l0.017,0.012l0.017,0.011l0.019,0.012l0.021,0.012l0.022,0.013l0.024,0.013l0.026,0.013l0.028,0.014l0.027,0.013l0.028,0.013l0.029,0.012l0.032,0.013l0.034,0.014l0.037,0.013l0.039,0.014l0.041,0.014l0.043,0.014l0.046,0.015l0.048,0.014l0.051,0.014l0.052,0.015l0.055,0.014l0.057,0.014l0.059,0.015l0.059,0.013l0.13,0.029l0.136,0.028l0.144,0.027l0.152,0.027l0.161,0.027l0.167,0.026l0.176,0.025l0.183,0.025l0.092,0.012l0.096,0.011l0.099,0.011l0.103,0.011l0.105,0.01l0.109,0.01l0.112,0.01l0.115,0.009l0.119,0.009l0.122,0.009l0.124,0.008l0.128,0.008l0.266,0.015l0.278,0.013l0.29,0.012l0.303,0.01l0.316,0.008l0.327,0.007l0.34,0.006l0.353,0.004l0.364,0.002l0.378,0.001l0.112,0.009l0.108,0.026l0.004,0.002l6.798,0l0.067,-0.021l0.078,-0.026l0.074,-0.024l0.07,-0.025l0.067,-0.024l0.063,-0.023l0.059,-0.023l0.055,-0.022l0.051,-0.022l0.032,-0.014l-0.001,-0.007l-0.006,-0.03l-0.007,-0.032l-0.008,-0.034l-0.01,-0.037l-0.011,-0.039l-0.012,-0.041l-0.013,-0.043l-0.015,-0.045l-0.016,-0.047l-0.017,-0.05l-0.019,-0.052l-0.021,-0.055l-0.023,-0.058l-0.024,-0.06l-0.026,-0.063l-0.027,-0.066l-0.029,-0.067l-0.063,-0.144l-0.07,-0.154l-0.076,-0.163l-0.083,-0.172l-0.089,-0.182l-0.095,-0.191l-0.102,-0.2l-0.108,-0.209l-0.114,-0.219l-0.121,-0.227l-0.127,-0.237l-0.133,-0.246l-0.291,-0.532l-0.325,-0.59l-0.358,-0.647l-0.392,-0.706l-0.425,-0.763l-0.458,-0.82l-0.492,-0.878l-0.536,-0.955l-0.061,-0.127l-0.052,-0.11l-0.05,-0.11l-0.049,-0.11l-0.047,-0.11l-0.045,-0.109l-0.044,-0.11l-0.042,-0.109l-0.041,-0.11l-0.039,-0.109l-0.038,-0.109l-0.036,-0.109l-0.034,-0.11l-0.033,-0.108l-0.032,-0.109l-0.029,-0.109l-0.028,-0.109l-0.027,-0.108l-0.025,-0.109l-0.023,-0.108l-0.022,-0.108l-0.02,-0.108l-0.018,-0.108l-0.017,-0.108l-0.015,-0.107l-0.013,-0.108l-0.012,-0.107l-0.01,-0.108l-0.008,-0.107l-0.007,-0.107l-0.005,-0.107l-0.004,-0.106l-0.001,-0.106l-0.001,-0.105l0.002,-0.104l0.003,-0.104l0.005,-0.104l0.006,-0.102l0.008,-0.102l0.009,-0.102l0.012,-0.101l0.013,-0.1l0.014,-0.1l0.016,-0.098l0.018,-0.099l0.02,-0.097l0.021,-0.097l0.023,-0.097l0.025,-0.095l0.026,-0.095l0.028,-0.094l0.03,-0.094l0.031,-0.093l0.034,-0.091l0.035,-0.092l0.036,-0.09l0.038,-0.089l0.04,-0.089l0.042,-0.088l0.043,-0.087l0.046,-0.086l0.046,-0.085l0.049,-0.085l0.05,-0.083l0.052,-0.083l0.053,-0.082l0.056,-0.081l0.057,-0.08l0.058,-0.078l0.061,-0.078l0.062,-0.076l0.063,-0.076l0.065,-0.074l0.067,-0.073l0.068,-0.072l0.07,-0.07l0.071,-0.07l0.073,-0.068l0.075,-0.067l0.076,-0.066l0.077,-0.065l0.079,-0.064l0.08,-0.062l0.082,-0.061l0.083,-0.06l0.084,-0.059l0.086,-0.058l0.088,-0.056l0.088,-0.056l0.09,-0.054l0.092,-0.053l0.093,-0.052l0.094,-0.051l0.095,-0.05l0.097,-0.048l0.099,-0.048l0.102,-0.047l0.103,-0.046l0.105,-0.044l0.107,-0.042l0.108,-0.041l0.109,-0.039l0.11,-0.038l0.112,-0.036l0.114,-0.035l0.114,-0.033l0.116,-0.031l0.117,-0.03l0.119,-0.028l0.12,-0.027l0.121,-0.025l0.123,-0.024l0.124,-0.022l0.125,-0.021l0.127,-0.02l0.128,-0.017l0.129,-0.017l0.13,-0.015l0.132,-0.013l0.134,-0.012l0.134,-0.011l0.136,-0.009l0.137,-0.008l0.139,-0.006l0.14,-0.005l0.141,-0.003l0.143,-0.003l0.141,0l13.562,-0.037l0.111,0.009Zm-13.67,0.74l-0.137,0.001l-0.136,0.002l-0.134,0.003l-0.132,0.005l-0.131,0.006l-0.13,0.007l-0.128,0.009l-0.126,0.01l-0.125,0.011l-0.124,0.013l-0.122,0.014l-0.12,0.015l-0.119,0.016l-0.118,0.018l-0.116,0.02l-0.114,0.02l-0.113,0.022l-0.112,0.023l-0.109,0.025l-0.109,0.026l-0.107,0.027l-0.105,0.029l-0.104,0.029l-0.102,0.032l-0.101,0.032l-0.1,0.034l-0.098,0.035l-0.096,0.037l-0.095,0.038l-0.093,0.039l-0.092,0.04l-0.09,0.042l-0.089,0.043l-0.088,0.044l-0.086,0.045l-0.084,0.045l-0.083,0.047l-0.082,0.047l-0.08,0.049l-0.079,0.049l-0.077,0.05l-0.076,0.051l-0.075,0.052l-0.073,0.053l-0.072,0.053l-0.07,0.055l-0.069,0.055l-0.067,0.057l-0.066,0.057l-0.064,0.058l-0.063,0.059l-0.062,0.06l-0.06,0.061l-0.059,0.062l-0.057,0.063l-0.056,0.063l-0.054,0.065l-0.053,0.065l-0.052,0.066l-0.05,0.068l-0.048,0.068l-0.048,0.069l-0.045,0.069l-0.045,0.071l-0.043,0.072l-0.041,0.072l-0.04,0.073l-0.039,0.074l-0.037,0.075l-0.036,0.075l-0.034,0.076l-0.033,0.077l-0.031,0.078l-0.03,0.078l-0.029,0.079l-0.027,0.08l-0.026,0.081l-0.024,0.081l-0.023,0.082l-0.021,0.083l-0.02,0.084l-0.019,0.084l-0.017,0.085l-0.016,0.086l-0.014,0.087l-0.013,0.087l-0.011,0.088l-0.01,0.089l-0.008,0.09l-0.007,0.09l-0.006,0.091l-0.004,0.092l-0.003,0.093l-0.001,0.093l0,0.095l0.002,0.095l0.003,0.095l0.004,0.096l0.006,0.096l0.008,0.096l0.009,0.096l0.011,0.097l0.012,0.097l0.013,0.097l0.015,0.098l0.017,0.097l0.018,0.098l0.02,0.099l0.021,0.098l0.023,0.099l0.024,0.099l0.025,0.099l0.028,0.099l0.028,0.1l0.03,0.1l0.032,0.1l0.033,0.101l0.035,0.1l0.036,0.101l0.038,0.102l0.039,0.101l0.041,0.102l0.042,0.102l0.044,0.102l0.045,0.103l0.047,0.102l0.048,0.103l0.05,0.103l0.525,0.936l0.492,0.879l0.459,0.821l0.426,0.764l0.392,0.706l0.359,0.649l0.325,0.591l0.293,0.534l0.134,0.249l0.129,0.239l0.122,0.231l0.117,0.222l0.11,0.213l0.103,0.205l0.098,0.196l0.092,0.187l0.085,0.178l0.079,0.169l0.073,0.161l0.067,0.152l0.031,0.073l0.03,0.07l0.028,0.068l0.026,0.067l0.025,0.063l0.023,0.062l0.022,0.06l0.021,0.057l0.018,0.056l0.018,0.054l0.016,0.053l0.016,0.051l0.013,0.05l0.013,0.049l0.011,0.048l0.011,0.046l0.008,0.044l0.008,0.044l0.006,0.042l0.005,0.04l0.004,0.039l0.003,0.038l0.001,0.037l0,0.035l-0.001,0.034l-0.003,0.032l-0.003,0.031l-0.005,0.03l-0.006,0.028l-0.008,0.027l-0.009,0.026l-0.01,0.024l-0.011,0.023l-0.012,0.021l-0.014,0.02l-0.015,0.019l-0.016,0.018l-0.018,0.016l-0.019,0.014l-0.02,0.014l-0.043,0.025l-0.046,0.025l-0.049,0.026l-0.052,0.026l-0.056,0.026l-0.059,0.026l-0.062,0.026l-0.065,0.026l-0.068,0.027l-0.071,0.026l-0.075,0.027l-0.077,0.027l-0.081,0.027l-0.084,0.027l-0.087,0.028l-0.091,0.027l-7.129,0l0,-0.037l-0.38,0l-0.368,-0.003l-0.355,-0.004l-0.344,-0.005l-0.332,-0.007l-0.319,-0.009l-0.308,-0.01l-0.295,-0.012l-0.284,-0.013l-0.271,-0.015l-0.131,-0.009l-0.128,-0.008l-0.125,-0.009l-0.122,-0.009l-0.119,-0.01l-0.117,-0.01l-0.113,-0.01l-0.11,-0.011l-0.107,-0.012l-0.104,-0.011l-0.101,-0.012l-0.098,-0.013l-0.189,-0.025l-0.182,-0.027l-0.175,-0.027l-0.168,-0.027l-0.161,-0.029l-0.153,-0.029l-0.146,-0.03l-0.139,-0.031l-0.067,-0.015l-0.065,-0.016l-0.064,-0.016l-0.061,-0.016l-0.06,-0.016l-0.058,-0.017l-0.056,-0.017l-0.054,-0.016l-0.053,-0.018l-0.05,-0.017l-0.049,-0.017l-0.047,-0.018l-0.046,-0.017l-0.043,-0.018l-0.042,-0.018l-0.04,-0.019l-0.038,-0.018l-0.038,-0.019l-0.035,-0.018l-0.035,-0.019l-0.034,-0.019l-0.032,-0.019l-0.031,-0.019l-0.03,-0.019l-0.029,-0.019l-0.027,-0.02l-0.027,-0.019l-0.025,-0.02l-0.023,-0.02l-0.023,-0.02l-0.021,-0.019l-0.02,-0.021l-0.019,-0.02l-0.018,-0.02l-0.016,-0.02l-0.016,-0.021l-0.014,-0.02l-0.013,-0.021l-0.011,-0.021l-0.011,-0.021l-0.009,-0.021l-0.008,-0.021l-0.006,-0.021l-0.006,-0.021l-0.004,-0.022l-0.003,-0.021l-0.002,-0.022l-0.001,-0.022l0,-0.043l-0.001,-0.043l-0.001,-0.042l-0.002,-0.041l-0.003,-0.04l-0.003,-0.04l-0.004,-0.039l-0.004,-0.038l-0.005,-0.038l-0.005,-0.036l-0.006,-0.036l-0.007,-0.036l-0.007,-0.035l-0.008,-0.034l-0.008,-0.033l-0.009,-0.032l1.029,-0.331l0.139,-0.094l0.142,-0.099l0.145,-0.103l0.148,-0.108l0.151,-0.113l0.153,-0.117l0.157,-0.122l0.159,-0.126l0.04,-0.032l0.04,-0.034l0.04,-0.034l0.039,-0.034l0.04,-0.035l0.039,-0.036l0.038,-0.037l0.039,-0.037l0.038,-0.038l0.038,-0.039l0.038,-0.039l0.038,-0.04l0.038,-0.041l0.037,-0.041l0.037,-0.042l0.037,-0.043l0.036,-0.043l0.037,-0.044l0.036,-0.045l0.036,-0.046l0.036,-0.046l0.035,-0.046l0.036,-0.048l0.035,-0.048l0.035,-0.049l0.035,-0.05l0.068,-0.101l0.068,-0.104l0.067,-0.106l0.033,-0.055l0.033,-0.055l0.033,-0.056l0.032,-0.057l0.031,-0.058l0.032,-0.058l0.031,-0.06l0.03,-0.061l0.03,-0.061l0.03,-0.062l0.03,-0.063l0.029,-0.064l0.029,-0.065l0.028,-0.065l0.028,-0.067l0.028,-0.067l0.028,-0.068l0.027,-0.069l0.026,-0.07l0.027,-0.071l0.026,-0.072l0.025,-0.072l0.025,-0.073l0.025,-0.075l0.025,-0.075l0.024,-0.076l0.024,-0.076l0.023,-0.078l0.023,-0.079l0.023,-0.079l0.022,-0.08l0.022,-0.081l0.022,-0.083l0.021,-0.083l0.02,-0.085l0.02,-0.086l0.019,-0.088l0.018,-0.089l0.018,-0.09l0.017,-0.091l0.017,-0.093l0.016,-0.094l0.015,-0.096l0.015,-0.096l0.014,-0.099l0.014,-0.099l0.013,-0.101l0.012,-0.102l0.012,-0.103l0.011,-0.105l0.011,-0.106l0.01,-0.108l0.009,-0.108l0.009,-0.111l0.008,-0.111l0.007,-0.113l0.007,-0.114l0.006,-0.115l0.006,-0.117l0.005,-0.118l0.005,-0.119l0.003,-0.121l0.004,-0.122l0.002,-0.124l0.001,-0.15l0,-0.15l-0.003,-0.147l-0.004,-0.147l-0.007,-0.145l-0.009,-0.143l-0.01,-0.142l-0.013,-0.14l-0.014,-0.139l-0.017,-0.137l-0.018,-0.136l-0.02,-0.134l-0.023,-0.133l-0.024,-0.131l-0.026,-0.13l-0.014,-0.064l-0.015,-0.064l-0.015,-0.064l-0.015,-0.063l-0.016,-0.063l-0.016,-0.062l-0.017,-0.062l-0.017,-0.062l-0.018,-0.061l-0.019,-0.061l-0.019,-0.06l-0.019,-0.061l-0.02,-0.059l-0.02,-0.06l-0.021,-0.059l-0.021,-0.058l-0.022,-0.059l-0.022,-0.058l-0.023,-0.057l-0.023,-0.057l-0.024,-0.057l-0.024,-0.056l-0.025,-0.056l-0.025,-0.056l-0.026,-0.055l-0.026,-0.055l-0.027,-0.055l-0.027,-0.054l-0.028,-0.054l-0.028,-0.053l-0.029,-0.053l-0.029,-0.053l-0.03,-0.052l-0.03,-0.052l-0.061,-0.102l-0.063,-0.102l-0.064,-0.1l-0.065,-0.099l-0.066,-0.098l-0.067,-0.096l-0.069,-0.095l-0.07,-0.094l-0.071,-0.093l-0.072,-0.092l-0.073,-0.09l-0.075,-0.089l-0.075,-0.087l-0.077,-0.087l-0.078,-0.085l-0.079,-0.084l-0.081,-0.082l-0.081,-0.082l-0.083,-0.08l-0.084,-0.079l-0.085,-0.077l-0.087,-0.077l-0.087,-0.075l-0.089,-0.074l-0.09,-0.072l-0.091,-0.072l-0.092,-0.07l-0.094,-0.068l-0.094,-0.068l-0.096,-0.066l-0.097,-0.065l-0.098,-0.064l-0.099,-0.063l-0.1,-0.061l-0.101,-0.06l-0.102,-0.06l-0.102,-0.058l-0.104,-0.056l-0.104,-0.056l-0.105,-0.055l-0.105,-0.053l-0.107,-0.052l-0.107,-0.051l-0.109,-0.05l-0.109,-0.049l-0.11,-0.048l-0.11,-0.046l-0.112,-0.046l-0.112,-0.044l-0.114,-0.043l-0.114,-0.042l-0.114,-0.041l-0.116,-0.039l-0.117,-0.039l-0.117,-0.037l-0.118,-0.036l-0.119,-0.035l-0.12,-0.034l-0.121,-0.033l-0.121,-0.032l-0.122,-0.03l-0.124,-0.029l-0.123,-0.028l-0.125,-0.027l-0.125,-0.026l-0.126,-0.026l-0.125,-0.024l-0.126,-0.023l-0.125,-0.023l-0.126,-0.022l-0.126,-0.021l-0.126,-0.02l-0.126,-0.02l-0.126,-0.018l-0.127,-0.018l-0.126,-0.017l-0.127,-0.016l-0.126,-0.015l-0.127,-0.015l-0.127,-0.013l-0.127,-0.013l-0.127,-0.012l-0.127,-0.011l-0.127,-0.011l-0.128,-0.009l-0.127,-0.009l-0.128,-0.008l-0.128,-0.007l-0.127,-0.006l-0.128,-0.005l-0.128,-0.005l-0.128,-0.003l-0.129,-0.003l-0.128,-0.002l-0.129,-0.002l-0.128,0l-13.892,0l0,24.255l9.004,0l0,-7.865l0.571,0.609l0.573,0.613l0.575,0.618l0.578,0.623l0.145,0.155l0.147,0.155l0.148,0.152l0.149,0.152l0.151,0.151l0.152,0.149l0.153,0.147l0.154,0.147l0.156,0.145l0.157,0.144l0.158,0.143l0.159,0.141l0.161,0.14l0.162,0.139l0.164,0.137l0.165,0.136l0.083,0.068l0.083,0.067l0.084,0.066l0.084,0.066l0.085,0.066l0.085,0.065l0.086,0.064l0.086,0.064l0.087,0.064l0.087,0.063l0.087,0.062l0.088,0.062l0.089,0.062l0.089,0.061l0.089,0.06l0.09,0.06l0.091,0.06l0.091,0.059l0.091,0.058l0.092,0.058l0.092,0.058l0.093,0.056l0.093,0.057l0.094,0.056l0.094,0.055l0.094,0.055l0.095,0.055l0.096,0.054l0.096,0.053l0.096,0.053l0.097,0.052l0.098,0.052l0.098,0.052l0.099,0.05l0.099,0.05l0.101,0.049l0.102,0.048l0.102,0.048l0.104,0.047l0.104,0.046l0.105,0.045l0.107,0.044l0.107,0.044l0.108,0.043l0.108,0.043l0.11,0.041l0.111,0.041l0.111,0.04l0.113,0.039l0.113,0.039l0.114,0.037l0.115,0.037l0.116,0.036l0.117,0.036l0.118,0.035l0.119,0.034l0.119,0.033l0.121,0.032l0.121,0.032l0.123,0.031l0.123,0.03l0.124,0.03l0.125,0.028l0.126,0.028l2.499,0l0,0.11l18.632,0l0.171,0l0.168,-0.003l0.166,-0.005l0.163,-0.006l0.161,-0.009l0.158,-0.01l0.155,-0.012l0.153,-0.014l0.151,-0.016l0.147,-0.018l0.146,-0.019l0.142,-0.022l0.07,-0.011l0.07,-0.012l0.069,-0.013l0.068,-0.012l0.068,-0.014l0.067,-0.013l0.067,-0.015l0.065,-0.014l0.066,-0.016l0.064,-0.015l0.064,-0.016l0.063,-0.017l0.063,-0.017l0.062,-0.017l0.061,-0.018l0.06,-0.019l0.06,-0.019l0.06,-0.019l0.058,-0.02l0.058,-0.02l0.058,-0.021l0.057,-0.021l0.056,-0.022l0.055,-0.022l0.055,-0.023l0.054,-0.023l0.054,-0.023l0.052,-0.024l0.053,-0.025l0.051,-0.025l0.051,-0.025l0.05,-0.026l0.05,-0.026l0.049,-0.027l0.048,-0.028l0.048,-0.027l0.047,-0.029l0.047,-0.028l0.045,-0.029l0.045,-0.03l0.089,-0.06l0.087,-0.061l0.085,-0.062l0.082,-0.062l0.082,-0.063l0.079,-0.064l0.077,-0.064l0.075,-0.066l0.074,-0.066l0.071,-0.067l0.07,-0.068l0.067,-0.068l0.066,-0.069l0.064,-0.07l0.062,-0.071l0.06,-0.071l0.058,-0.072l0.057,-0.073l0.054,-0.074l0.053,-0.074l0.05,-0.075l0.049,-0.076l0.047,-0.077l0.044,-0.077l0.043,-0.078l0.042,-0.079l0.039,-0.08l0.037,-0.081l0.035,-0.081l0.034,-0.082l0.031,-0.082l0.03,-0.084l0.028,-0.084l0.026,-0.084l0.025,-0.084l0.024,-0.085l0.022,-0.084l0.02,-0.085l0.019,-0.085l0.017,-0.085l0.016,-0.086l0.015,-0.085l0.013,-0.086l0.011,-0.086l0.01,-0.086l0.008,-0.086l0.007,-0.087l0.005,-0.086l0.004,-0.087l0.003,-0.087l0,-0.087l0,-0.087l-0.002,-0.088l-0.004,-0.088l-0.005,-0.088l-0.007,-0.088l-0.008,-0.088l-0.01,-0.088l-0.011,-0.089l-0.013,-0.089l-0.014,-0.089l-0.016,-0.089l-0.017,-0.089l-0.019,-0.09l-0.02,-0.089l-0.021,-0.088l-0.021,-0.087l-0.023,-0.086l-0.023,-0.086l-0.024,-0.084l-0.025,-0.084l-0.026,-0.082l-0.026,-0.082l-0.027,-0.081l-0.029,-0.079l-0.029,-0.079l-0.03,-0.078l-0.03,-0.077l-0.032,-0.076l-0.032,-0.075l-0.033,-0.074l-0.034,-0.074l-0.035,-0.072l-0.036,-0.071l-0.036,-0.071l-0.037,-0.069l-0.038,-0.069l-0.039,-0.068l-0.04,-0.066l-0.041,-0.066l-0.041,-0.065l-0.042,-0.064l-0.043,-0.063l-0.044,-0.062l-0.045,-0.061l-0.045,-0.06l-1.049,-1.607l-0.94,-1.439l-0.833,-1.271l-0.725,-1.104l-0.164,-0.251l-0.159,-0.244l-0.153,-0.235l-0.147,-0.229l-0.142,-0.221l-0.135,-0.213l-0.129,-0.205l-0.124,-0.198l-0.117,-0.19l-0.112,-0.183l-0.106,-0.175l-0.1,-0.168l-0.094,-0.159l-0.088,-0.153l-0.083,-0.144l-0.076,-0.137l-0.071,-0.131l-0.065,-0.124l-0.03,-0.06l-0.029,-0.058l-0.028,-0.057l-0.026,-0.056l-0.025,-0.054l-0.024,-0.053l-0.022,-0.051l-0.02,-0.05l-0.02,-0.048l-0.017,-0.047l-0.017,-0.045l-0.015,-0.044l-0.014,-0.042l-0.012,-0.041l-0.011,-0.039l-0.009,-0.038l-0.008,-0.037l-0.007,-0.035l-0.005,-0.033l-0.004,-0.032l-0.002,-0.031l-0.002,-0.029l0.001,-0.027l0.002,-0.027l0.003,-0.024l0.004,-0.023l0.006,-0.022l0.008,-0.02l0.008,-0.02l0.01,-0.018l0.011,-0.018l0.013,-0.017l0.013,-0.016l0.015,-0.016l0.017,-0.015l0.017,-0.015l0.019,-0.013l0.02,-0.014l0.021,-0.012l0.022,-0.012l0.024,-0.011l0.025,-0.01l0.026,-0.01l0.028,-0.008l0.029,-0.009l0.03,-0.007l0.031,-0.007l0.033,-0.006l0.033,-0.006l0.035,-0.005l0.037,-0.004l0.037,-0.004l0.039,-0.002l0.04,-0.003l0.041,-0.001l0.043,-0.001l0.044,0l0.045,0.001l0.046,0.001l0.048,0.002l9.004,0l0,-5.954l-13.561,0.037Zm-24.4,6.432l0.218,0.002l0.212,0.003l0.208,0.005l0.202,0.006l0.198,0.007l0.192,0.008l0.187,0.01l0.183,0.011l0.177,0.012l0.172,0.014l0.168,0.015l0.162,0.016l0.157,0.017l0.153,0.019l0.147,0.02l0.143,0.021l0.139,0.022l0.135,0.023l0.132,0.025l0.128,0.025l0.124,0.026l0.12,0.027l0.117,0.028l0.113,0.03l0.109,0.03l0.106,0.031l0.101,0.032l0.099,0.034l0.094,0.034l0.046,0.017l0.044,0.018l0.044,0.018l0.043,0.018l0.084,0.037l0.08,0.038l0.038,0.02l0.038,0.019l0.037,0.02l0.037,0.02l0.035,0.02l0.035,0.021l0.034,0.02l0.033,0.021l0.032,0.021l0.031,0.022l0.031,0.021l0.029,0.022l0.029,0.022l0.028,0.022l0.028,0.022l0.026,0.023l0.026,0.023l0.024,0.023l0.024,0.023l0.023,0.023l0.023,0.024l0.021,0.024l0.021,0.024l0.019,0.024l0.019,0.025l0.019,0.024l0.017,0.025l0.016,0.025l0.032,0.051l0.029,0.052l0.027,0.052l0.025,0.052l0.023,0.053l0.021,0.054l0.019,0.054l0.017,0.055l0.015,0.056l0.013,0.056l0.012,0.056l0.009,0.057l0.007,0.058l0.005,0.058l0.003,0.059l0.001,0.059l-0.001,0.046l-0.001,0.045l-0.001,0.045l-0.002,0.045l-0.003,0.044l-0.004,0.043l-0.004,0.043l-0.004,0.043l-0.006,0.042l-0.006,0.042l-0.006,0.041l-0.008,0.041l-0.007,0.041l-0.009,0.04l-0.009,0.039l-0.01,0.039l-0.01,0.039l-0.011,0.038l-0.012,0.038l-0.012,0.037l-0.013,0.037l-0.013,0.037l-0.014,0.036l-0.015,0.035l-0.016,0.036l-0.016,0.034l-0.016,0.035l-0.018,0.033l-0.017,0.034l-0.019,0.033l-0.019,0.032l-0.02,0.032l-0.02,0.032l-0.021,0.031l-0.022,0.031l-0.022,0.03l-0.023,0.03l-0.024,0.03l-0.024,0.029l-0.025,0.028l-0.025,0.028l-0.026,0.028l-0.027,0.027l-0.027,0.027l-0.028,0.027l-0.029,0.025l-0.029,0.026l-0.03,0.025l-0.03,0.025l-0.031,0.024l-0.032,0.024l-0.032,0.023l-0.033,0.023l-0.034,0.022l-0.034,0.022l-0.035,0.022l-0.036,0.021l-0.036,0.02l-0.036,0.021l-0.038,0.019l-0.038,0.02l-0.038,0.019l-0.04,0.018l-0.04,0.018l-0.04,0.018l-0.042,0.017l-0.043,0.017l-0.043,0.017l-0.045,0.017l-0.046,0.016l-0.047,0.016l-0.047,0.016l-0.049,0.015l-0.05,0.015l-0.102,0.03l-0.107,0.028l-0.11,0.027l-0.115,0.026l-0.118,0.026l-0.123,0.023l-0.127,0.023l-0.13,0.022l-0.135,0.021l-0.139,0.019l-0.142,0.018l-0.147,0.018l-0.151,0.016l-0.155,0.015l-0.158,0.014l-0.163,0.012l-0.167,0.012l-0.171,0.011l-0.175,0.009l-0.178,0.008l-0.183,0.008l-0.187,0.006l-0.191,0.005l-0.195,0.004l-0.199,0.003l-0.203,0.001l-0.207,0.001l-3.344,0l0,-4.815l3.27,0l0.223,0.001Zm-2.781,0.712l0,3.389l2.631,0l0.204,0l0.199,-0.002l0.195,-0.003l0.19,-0.003l0.187,-0.005l0.182,-0.006l0.178,-0.007l0.174,-0.008l0.169,-0.01l0.165,-0.01l0.161,-0.011l0.157,-0.012l0.152,-0.014l0.148,-0.014l0.143,-0.015l0.14,-0.017l0.134,-0.017l0.131,-0.018l0.125,-0.02l0.122,-0.02l0.117,-0.021l0.112,-0.022l0.107,-0.022l0.103,-0.024l0.098,-0.024l0.094,-0.025l0.09,-0.026l0.041,-0.012l0.041,-0.013l0.04,-0.014l0.038,-0.013l0.038,-0.013l0.036,-0.013l0.035,-0.014l0.033,-0.013l0.033,-0.014l0.031,-0.013l0.03,-0.014l0.029,-0.014l0.029,-0.014l0.028,-0.014l0.027,-0.014l0.027,-0.015l0.025,-0.015l0.026,-0.015l0.024,-0.015l0.024,-0.015l0.023,-0.015l0.022,-0.016l0.022,-0.016l0.021,-0.016l0.021,-0.016l0.02,-0.016l0.019,-0.016l0.019,-0.017l0.019,-0.016l0.018,-0.017l0.017,-0.017l0.017,-0.017l0.016,-0.018l0.016,-0.017l0.015,-0.018l0.015,-0.018l0.015,-0.018l0.014,-0.018l0.014,-0.019l0.013,-0.019l0.013,-0.019l0.012,-0.02l0.013,-0.019l0.011,-0.021l0.012,-0.02l0.011,-0.021l0.011,-0.021l0.01,-0.022l0.01,-0.021l0.01,-0.023l0.01,-0.023l0.009,-0.023l0.009,-0.024l0.008,-0.024l0.008,-0.025l0.008,-0.025l0.007,-0.026l0.007,-0.026l0.007,-0.027l0.006,-0.027l0.006,-0.028l0.006,-0.029l0.005,-0.029l0.005,-0.03l0.004,-0.03l0.004,-0.031l0.003,-0.031l0.003,-0.032l0.003,-0.033l0.002,-0.034l0.002,-0.034l0.001,-0.034l0.001,-0.036l0,-0.032l-0.001,-0.039l-0.001,-0.034l-0.003,-0.033l-0.004,-0.033l-0.005,-0.032l-0.006,-0.031l-0.008,-0.031l-0.008,-0.03l-0.009,-0.03l-0.011,-0.03l-0.011,-0.03l-0.013,-0.03l-0.015,-0.03l-0.015,-0.03l-0.017,-0.03l-0.019,-0.031l-0.006,-0.008l-0.006,-0.01l-0.008,-0.01l-0.008,-0.01l-0.008,-0.01l-0.01,-0.011l-0.01,-0.012l-0.011,-0.011l-0.012,-0.012l-0.012,-0.013l-0.014,-0.012l-0.015,-0.013l-0.015,-0.014l-0.016,-0.013l-0.018,-0.014l-0.018,-0.014l-0.02,-0.014l-0.02,-0.014l-0.021,-0.015l-0.023,-0.014l-0.023,-0.015l-0.025,-0.015l-0.025,-0.015l-0.026,-0.015l-0.028,-0.015l-0.028,-0.015l-0.03,-0.016l-0.028,-0.014l-0.067,-0.031l-0.069,-0.031l-0.033,-0.014l-0.036,-0.015l-0.037,-0.015l-0.036,-0.014l-0.081,-0.029l-0.084,-0.029l-0.089,-0.028l-0.093,-0.027l-0.097,-0.027l-0.102,-0.026l-0.106,-0.026l-0.11,-0.025l-0.115,-0.024l-0.119,-0.023l-0.122,-0.023l-0.128,-0.022l-0.131,-0.021l-0.134,-0.02l-0.139,-0.019l-0.143,-0.017l-0.149,-0.017l-0.155,-0.015l-0.16,-0.014l-0.165,-0.013l-0.171,-0.012l-0.176,-0.011l-0.182,-0.009l-0.187,-0.008l-0.192,-0.007l-0.197,-0.006l-0.203,-0.004l-0.208,-0.003l-0.213,-0.002l-0.22,-0.001l-2.557,0Z"/><path d="M297.896,6.666l-9.004,0c-0.515,-0.025 -0.815,0.067 -0.9,0.276c-0.086,0.208 0.067,0.667 0.459,1.378c0.392,0.71 1.035,1.745 1.929,3.105c0.895,1.36 2.077,3.167 3.547,5.421c0.49,0.637 0.839,1.433 1.047,2.388c0.208,0.956 0.159,1.881 -0.147,2.775c-0.306,0.894 -0.937,1.66 -1.893,2.297c-0.955,0.637 -2.352,0.955 -4.189,0.955l-18.632,0l0,-0.11l-2.499,0c-1.348,-0.294 -2.542,-0.716 -3.583,-1.268c-1.042,-0.551 -2.003,-1.188 -2.885,-1.911c-0.882,-0.722 -1.709,-1.5 -2.481,-2.333c-0.772,-0.833 -1.537,-1.654 -2.297,-2.463l0,7.865l-9.004,0l0,-24.255l13.892,0c1.372,0 2.726,0.141 4.061,0.423c1.335,0.281 2.529,0.759 3.583,1.433c1.053,0.674 1.905,1.562 2.554,2.664c0.649,1.103 0.962,2.462 0.937,4.079c-0.024,1.323 -0.153,2.42 -0.386,3.29c-0.232,0.869 -0.526,1.592 -0.882,2.168c-0.355,0.576 -0.747,1.035 -1.176,1.378c-0.428,0.343 -0.827,0.637 -1.194,0.882l-1.029,0.331c0.049,0.171 0.073,0.373 0.073,0.606c0,0.233 0.209,0.447 0.625,0.643c0.417,0.196 1.139,0.362 2.168,0.496c1.029,0.135 2.573,0.202 4.631,0.202l0,0.037l7.129,0c0.49,-0.147 0.846,-0.288 1.066,-0.422c0.221,-0.135 0.227,-0.503 0.019,-1.103c-0.209,-0.6 -0.68,-1.574 -1.415,-2.922c-0.735,-1.347 -1.826,-3.307 -3.271,-5.88c-0.539,-1.102 -0.821,-2.162 -0.845,-3.178c-0.025,-1.017 0.196,-1.905 0.661,-2.665c0.466,-0.759 1.176,-1.366 2.132,-1.819c0.955,-0.453 2.168,-0.68 3.638,-0.68l13.561,-0.037l0,5.954Zm-38.184,0.514l-3.27,0l0,4.815l3.344,0c2.229,0 3.773,-0.19 4.63,-0.57c0.858,-0.38 1.287,-1.06 1.287,-2.04c0,-0.318 -0.086,-0.612 -0.258,-0.882c-0.171,-0.269 -0.483,-0.502 -0.937,-0.698c-0.453,-0.196 -1.065,-0.349 -1.837,-0.459c-0.772,-0.11 -1.758,-0.165 -2.959,-0.166Z" style="fill:#fff;"/></g></svg>