<?xml version="1.0" encoding="UTF-8" standalone="no"?><!DOCTYPE svg PUBLIC "-//W3C//DTD SVG 1.1//EN" "http://www.w3.org/Graphics/SVG/1.1/DTD/svg11.dtd"><svg width="100%" height="100%" viewBox="0 0 288 64" version="1.1" xmlns="http://www.w3.org/2000/svg" xmlns:xlink="http://www.w3.org/1999/xlink" xml:space="preserve" style="fill-rule:evenodd;clip-rule:evenodd;stroke-linecap:round;stroke-linejoin:round;stroke-miterlimit:1.5;"><path d="M285.598,16.818c0,-8.247 -7.946,-14.943 -17.733,-14.943l-248.257,0c-9.787,0 -17.733,6.696 -17.733,14.943l0,29.887c0,8.247 7.946,14.943 17.733,14.943l248.257,0c9.787,0 17.733,-6.696 17.733,-14.943l0,-29.887Z" style="fill:#ec3c3e;stroke:#993d3f;stroke-width:3.75px;"/><path d="M59.167,47.17l-13.658,0l0,-31.005l21.072,0c2.081,0 4.135,0.18 6.16,0.54c2.026,0.36 3.838,0.971 5.436,1.832c1.598,0.861 2.889,1.997 3.874,3.406c0.985,1.409 1.459,3.148 1.422,5.215c-0.037,1.691 -0.232,3.092 -0.586,4.204c-0.353,1.112 -0.799,2.036 -1.337,2.772c-0.539,0.736 -1.134,1.323 -1.784,1.762c-0.651,0.438 -1.255,0.814 -1.812,1.127l-1.561,0.423c0.074,0.219 0.111,0.478 0.111,0.775c0,0.298 0.316,0.572 0.948,0.822c0.632,0.251 1.728,0.462 3.289,0.634c1.561,0.173 3.903,0.259 7.024,0.259l0,7.375l-11.539,0c-2.044,-0.375 -3.856,-0.916 -5.436,-1.62c-1.579,-0.705 -3.038,-1.519 -4.376,-2.443c-1.338,-0.924 -2.592,-1.919 -3.763,-2.983c-1.171,-1.065 -2.332,-2.114 -3.484,-3.148l0,10.053Zm0.111,-22.831l0,6.154l5.073,0c3.382,0 5.724,-0.243 7.025,-0.728c1.3,-0.486 1.951,-1.355 1.951,-2.607c0,-0.408 -0.13,-0.783 -0.391,-1.128c-0.26,-0.344 -0.734,-0.642 -1.421,-0.892c-0.688,-0.251 -1.617,-0.447 -2.787,-0.588c-1.171,-0.141 -2.667,-0.211 -4.488,-0.211l-4.962,0Z" style="fill:#fff;fill-rule:nonzero;"/><path d="M89.995,47.452l0,-31.287l33.895,0l0,7.61l-21.184,0l0,4.557l19.623,0l0,6.859l-19.623,0l0,4.557l26.146,0l0,7.704l-38.857,0Z" style="fill:#fff;fill-rule:nonzero;"/><path d="M121.103,47.452l0,-7.469l18.564,0c0.743,-0.188 1.282,-0.368 1.616,-0.54c0.335,-0.173 0.344,-0.643 0.028,-1.41c-0.316,-0.767 -1.031,-2.012 -2.146,-3.735c-1.115,-1.722 -2.769,-4.228 -4.962,-7.516c-0.817,-1.41 -1.245,-2.764 -1.282,-4.064c-0.037,-1.3 0.298,-2.435 1.004,-3.406c0.706,-0.971 1.784,-1.746 3.233,-2.325c1.45,-0.58 3.289,-0.869 5.519,-0.869l20.571,-0.047l0,7.61l-13.658,0c-0.781,-0.031 -1.236,0.086 -1.366,0.353c-0.13,0.266 0.102,0.853 0.697,1.761c0.595,0.908 1.57,2.232 2.927,3.97c1.356,1.738 3.149,4.048 5.379,6.929c0.744,0.815 1.273,1.832 1.589,3.054c0.316,1.221 0.242,2.404 -0.223,3.547c-0.464,1.143 -1.421,2.122 -2.871,2.936c-1.449,0.814 -3.568,1.221 -6.355,1.221l-28.264,0Z" style="fill:#fff;fill-rule:nonzero;"/><path d="M162.3,47.452l0,-31.287l33.895,0l0,7.61l-21.184,0l0,4.557l19.623,0l0,6.859l-19.623,0l0,4.557l26.146,0l0,7.704l-38.857,0Z" style="fill:#fff;fill-rule:nonzero;"/><path d="M203.387,23.54l0,-7.469l38.577,0l0,7.469l-13.101,0l0,23.63l-12.654,0l0,-23.63l-12.822,0Z" style="fill:#fff;fill-rule:nonzero;"/></svg>